<svg width="380" height="220" viewBox="0 0 380 220" fill="none" xmlns="http://www.w3.org/2000/svg">
<rect x="0.5" y="0.5" width="379" height="219" rx="29.5" fill="black" stroke="url(#paint0_linear_7877_5545)"/>
<mask id="mask0_7877_5545" style="mask-type:alpha" maskUnits="userSpaceOnUse" x="0" y="0" width="380" height="220">
<rect x="0.5" y="0.5" width="379" height="219" rx="29.5" fill="black" stroke="url(#paint1_linear_7877_5545)"/>
</mask>
<g mask="url(#mask0_7877_5545)">
<g filter="url(#filter0_f_7877_5545)">
<circle cx="144.5" cy="249.5" r="170.5" fill="#9747FE"/>
</g>
</g>
<mask id="mask1_7877_5545" style="mask-type:alpha" maskUnits="userSpaceOnUse" x="0" y="0" width="380" height="220">
<rect width="380" height="220" rx="30" fill="black"/>
</mask>
<g mask="url(#mask1_7877_5545)">
<g opacity="0.65">
<mask id="mask2_7877_5545" style="mask-type:luminance" maskUnits="userSpaceOnUse" x="-98" y="12" width="617" height="624">
<path d="M518.748 12.9805H-97.6875V635.271H518.748V12.9805Z" fill="white"/>
</mask>
<g mask="url(#mask2_7877_5545)">
<g opacity="0.13">
<path d="M537.191 108.71C500.513 114.414 468.151 91.4928 432.5 88.2777C418.476 86.8775 404.555 89.7297 390.685 91.3373C370.908 93.8264 351.131 96.2119 331.353 98.5973C266.936 106.376 202.57 114.777 138.152 122.867C125.31 124.734 112.21 125.148 99.6249 128.467C62.3306 139.254 33.3068 167.412 -1.57318 183.488C-63.4736 216.21 -123.936 157.041 -186.966 163.264C-196.521 185.044 -206.076 206.824 -215.63 228.604C-221.178 241.932 -228.216 254.74 -231.452 268.949C-242.497 316.918 -246.401 366.286 -256.212 414.514C-261.606 435.308 -266.127 481.254 -294.894 478.091C-326.229 473.061 -337.787 477.987 -351.092 508.013C-361.16 531.193 -369.996 554.892 -378.78 578.643C-400.51 637.968 -421.468 697.708 -446.742 755.684C-382.325 747.646 -317.907 739.609 -253.49 731.571C-213.935 727.526 -174.329 719.28 -134.518 719.332C-73.0797 720.421 -13.645 738.883 47.2793 744.846C103.735 750.965 142.519 742.876 192.655 716.636C239.145 692.989 282.655 664.052 328.322 638.901C362.021 620.751 397.209 602.394 435.788 598.608C462.038 595.756 488.647 597.415 514.589 602.186C550.393 608.772 585.736 619.144 622.362 619.61C641.42 620.233 660.324 617.691 679.125 615.202C700.547 612.506 721.968 609.809 743.389 607.164C807.806 599.178 872.275 591.4 936.641 583.154C916.915 555.514 890.101 533.89 857.584 524.037C840.888 518.384 824.553 510.45 812.686 496.967C790.957 472.231 778.217 441.013 764.656 411.298C743.029 362.552 725.923 311.628 701.471 264.23C692.636 248.051 680.512 234.049 669.982 219.011C652.516 195.156 635.05 171.302 617.585 147.499C597.91 119.496 557.02 131.631 537.191 108.71Z" stroke="black" stroke-width="0.9899" stroke-miterlimit="10" stroke-linecap="round" stroke-linejoin="round"/>
<path d="M657.912 202.313C615.686 207.291 575.155 220.93 534.008 231.146C517.57 235.242 500.977 238.821 484.128 241.05C468.82 243.851 453.204 241.725 438.718 236.279C409.077 225.752 382.571 205.735 350.875 201.639C309.985 195.986 281.321 231.872 253.633 256.504C230.362 278.388 207.297 300.998 180.072 317.851C161.168 329.882 139.849 337.142 117.349 333.461C59.4557 329.519 2.33271 314.325 -55.9718 317.488C-121.982 326.615 -182.598 358.871 -248.402 369.242" stroke="black" stroke-width="0.9899" stroke-miterlimit="10" stroke-linecap="round" stroke-linejoin="round"/>
<path d="M645.12 184.837C603.562 190.593 565.138 208.432 525.532 221.396C503.905 227.671 478.22 237.576 455.669 233.324C423.871 226.116 399.265 202.676 371.474 186.911C331.611 163.212 306.44 168.139 270.995 196.09C229.694 226.427 188.958 275.432 138.256 287.411C129.883 289.226 121.304 288.448 112.777 288.5C99.8317 288.552 86.8866 289.174 74.0442 290.574C34.8492 294.516 -2.75337 307.117 -41.5888 312.977C-108.164 319.304 -175.201 320.704 -241.879 326.304" stroke="black" stroke-width="0.9899" stroke-miterlimit="10" stroke-linecap="round" stroke-linejoin="round"/>
<path d="M632.891 168.138C603.354 172.597 575.923 185.303 548.902 197.593C522.395 208.898 473.543 234.36 445.803 223.21C397.105 207.342 354.725 133.964 301.095 143.246C283.373 147.498 267.91 157.974 253.167 168.397C235.188 181.465 218.185 195.881 200.462 209.364C119.966 271.542 123.613 230.004 56.6272 258.888C23.2884 274.29 -3.73206 307.635 -42.4647 308.412C-107.396 307.998 -170.529 286.217 -235.512 287.721" stroke="black" stroke-width="0.9899" stroke-miterlimit="10" stroke-linecap="round" stroke-linejoin="round"/>
<path d="M621.232 152.219C590.359 156.523 562.671 172.08 535.291 186.237C516.335 196.09 497.072 205.839 476.37 211.388C461.113 216.263 444.623 216.263 430.394 208.225C400.959 192.564 379.435 165.857 354.059 144.699C330.994 124.734 304.949 109.281 274.898 124.371C241.662 139.721 214.95 165.805 185.31 186.86C167.895 199.253 149.402 211.699 128.186 215.9C120.532 217.611 112.724 216.574 104.967 216.107C96.5428 215.796 88.0155 216.47 79.8477 218.544C46.0465 226.271 29.3 259.564 5.46453 281.551C-3.83337 289.849 -15.2888 296.175 -27.7716 297.627C-49.6551 299.027 -71.333 293.945 -92.3432 288.448C-137.24 277.247 -181.469 256.66 -228.473 258.786" stroke="black" stroke-width="0.9899" stroke-miterlimit="10" stroke-linecap="round" stroke-linejoin="round"/>
<path d="M609.057 138.683C571.146 144.906 537.961 165.701 503.338 181.155C486.129 188.57 468.201 195.83 449.452 197.697C438.767 197.801 428.39 194.067 419.092 188.985C390.479 172.806 368.647 147.343 342.757 127.482C319.897 109.591 295.856 97.2491 267.911 112.184C218.545 134.483 176.576 188.104 123.46 198.682C116.422 199.979 109.333 198.838 102.193 198.682C92.3814 198.527 82.5698 200.031 73.426 203.661C42.6042 215.484 28.6317 248.414 4.02563 268.327C-46.2138 310.487 -156.35 231.975 -220.922 240.739" stroke="black" stroke-width="0.9899" stroke-miterlimit="10" stroke-linecap="round" stroke-linejoin="round"/>
<path d="M594.315 130.698C558.254 136.506 524.761 151.752 490.343 163.368C474.521 168.502 458.442 173.48 441.901 175.555C430.395 175.918 419.145 172.547 408.768 167.724C372.45 150.767 344.556 118.304 306.029 105.651C289.231 99.5314 271.714 104.354 256.2 111.873C216.337 130.49 183.153 161.709 141.903 177.525C107.383 190.697 90.9956 172.651 55.191 200.602C32.537 217.974 17.6398 245.199 -8.86691 257.386C-65.3221 279.84 -151.212 216.678 -213.523 223.834" stroke="black" stroke-width="0.9899" stroke-miterlimit="10" stroke-linecap="round" stroke-linejoin="round"/>
<path d="M578.339 126.133C543.408 130.645 509.093 138.372 474.47 144.698C444.213 149.936 420.224 156.366 390.481 144.024C330.532 120.636 300.43 87.2402 234.163 120.429C200.619 135.416 169.489 156.833 133.479 165.545C121.818 168.812 109.694 167.36 97.828 168.605C65.9275 171.975 43.0167 196.712 20.5168 217.299C2.38329 234.619 -20.5789 246.65 -46.161 243.383C-100.972 238.924 -150.595 203.609 -206.383 207.757" stroke="black" stroke-width="0.9899" stroke-miterlimit="10" stroke-linecap="round" stroke-linejoin="round"/>
<path d="M562.518 122.607C527.998 126.03 493.323 123.955 458.7 124.733C436.354 124.474 414.214 130.126 391.919 127.378C350.927 122.918 310.91 104.353 269.197 112.028C227.794 117.058 190.448 137.749 150.38 148.017C135.123 152.425 119.301 153.359 103.53 153.825C90.534 155.07 78.0512 159.581 66.6985 165.96C37.0582 182.295 14.8665 211.128 -17.8045 221.966C-78.0611 238.924 -138.729 185.666 -199.602 192.304" stroke="black" stroke-width="0.9899" stroke-miterlimit="10" stroke-linecap="round" stroke-linejoin="round"/>
<path d="M548.285 117.63C508.936 121.519 471.488 104.769 432.396 104.561C415.649 104.198 399.262 109.021 382.516 109.125C357.396 110.266 332.225 108.606 307.054 109.384C262.259 111.355 218.236 120.741 174.623 130.75C152.38 135.78 129.777 138.995 106.969 139.876C67.7227 144.336 38.8529 174.621 5.97636 193.653C-60.5986 236.954 -124.811 170.939 -193.184 177.577" stroke="black" stroke-width="0.9899" stroke-miterlimit="10" stroke-linecap="round" stroke-linejoin="round"/>
<path d="M-9.58801 186.963C-15.1873 222.537 14.6071 274.498 -13.5948 303.642C-27.2592 316.244 -44.0057 326.667 -50.8892 344.921C-58.0296 367.272 -68.7144 388.118 -79.1425 409.069C-88.8513 429.19 -96.3513 450.399 -100.769 472.335C-114.279 554.114 -111.3 637.968 -127.07 719.54" stroke="black" stroke-width="0.9899" stroke-miterlimit="10" stroke-linecap="round" stroke-linejoin="round"/>
<path d="M8.90763 178.25C5.82545 198.163 11.1165 218.077 12.6062 237.938C16.8186 268.897 6.33913 295.759 -7.99299 322.414C-17.856 340.772 -25.3559 360.166 -33.0614 379.457C-49.0887 415.187 -64.14 451.799 -69.5851 490.951C-79.6022 567.908 -78.0611 646.005 -90.8008 722.651" stroke="black" stroke-width="0.9899" stroke-miterlimit="10" stroke-linecap="round" stroke-linejoin="round"/>
<path d="M27.1441 167.465C22.4181 192.201 28.942 217.507 26.579 242.451C22.0585 275.899 20.8256 309.918 12.7092 342.847C7.52089 367.065 -3.98593 389.052 -12.3592 412.129C-24.1742 443.503 -32.1878 476.225 -36.5029 509.517C-44.7734 582.222 -43.9001 655.756 -54.3281 728.304" stroke="black" stroke-width="0.9899" stroke-miterlimit="10" stroke-linecap="round" stroke-linejoin="round"/>
<path d="M45.3268 155.848C41.1145 172.39 42.1932 189.659 41.4227 206.564C41.4741 218.958 38.8542 231.093 37.3645 243.228C38.2378 278.439 42.2446 313.702 39.7789 348.965C38.957 360.529 37.4673 372.094 34.1796 383.243C30.6865 393.563 25.2413 403.104 21.7995 413.476C13.94 434.789 8.44341 456.881 4.33384 479.231C-11.077 563.655 -7.01883 650.05 -17.6523 735.045" stroke="black" stroke-width="0.9899" stroke-miterlimit="10" stroke-linecap="round" stroke-linejoin="round"/>
<path d="M63.5621 144.595C58.8361 161.915 58.682 180.065 56.6272 197.852C55.908 204.594 54.9833 211.335 53.6991 218.025C53.0827 221.914 51.4902 225.596 52.2094 229.641C55.2916 261.17 61.2504 292.389 64.2812 323.97C66.3874 350.054 69.5723 377.487 61.3532 402.742C40.0861 442.879 36.4903 489.551 31.7643 534.045C25.189 602.964 25.5999 672.349 18.9219 741.268" stroke="black" stroke-width="0.9899" stroke-miterlimit="10" stroke-linecap="round" stroke-linejoin="round"/>
<path d="M82.0046 134.95C77.7923 152.789 76.7135 171.199 74.3505 189.349C73.5286 195.883 72.6039 202.417 71.4224 208.899C70.806 212.322 69.8813 215.485 70.6005 218.959C75.1724 253.185 83.3402 286.841 88.4771 320.963C92.3812 348.966 97.4668 377.955 92.073 406.113C91.1484 411.247 88.6826 415.603 86.0627 420.011C82.8778 425.975 80.4121 432.301 78.3573 438.732C68.0834 472.543 66.6964 508.325 64.3848 543.38C59.8643 610.691 59.8643 678.21 55.3438 745.573" stroke="black" stroke-width="0.9899" stroke-miterlimit="10" stroke-linecap="round" stroke-linejoin="round"/>
<path d="M100.756 128.156C98.5467 146.877 97.5706 165.753 96.1323 184.577C95.7727 194.586 93.5638 204.491 94.2316 214.447C99.2144 250.696 108.872 286.166 114.985 322.259C119.505 350.884 125.618 380.547 120.43 409.432C119.403 415.136 116.526 420.011 113.187 424.626C110.105 429.656 107.793 435.101 105.944 440.702C95.4131 475.239 96.4405 512.006 95.2076 547.788C93.1015 614.01 93.5638 680.232 91.4062 746.454" stroke="black" stroke-width="0.9899" stroke-miterlimit="10" stroke-linecap="round" stroke-linejoin="round"/>
<path d="M119.914 125.044C120.376 156.47 119.298 187.999 120.839 219.373C126.798 257.851 136.866 295.655 142.876 334.134C146.267 359.233 151.712 385.628 145.291 410.623C144.058 415.239 140.873 418.713 138.458 422.706C135.222 428.203 132.911 434.219 131.113 440.39C122.38 473.423 124.178 508.167 124.024 542.082C123.202 608.823 127.979 675.408 127.26 742.149" stroke="black" stroke-width="0.9899" stroke-miterlimit="10" stroke-linecap="round" stroke-linejoin="round"/>
<path d="M139.078 122.764C139.335 141.277 140.876 159.686 141.852 178.148C142.777 190.075 142.006 202.106 143.804 213.981C150.688 255 160.653 295.553 166.51 336.78C169.181 359.805 173.804 383.97 167.794 406.736C161.116 419.7 156.03 433.339 154.232 447.911C150.534 472.75 150.996 497.953 151.304 523C151.869 543.743 151.561 564.486 153.513 585.177C158.444 633.146 166.047 680.855 165.944 729.238" stroke="black" stroke-width="0.9899" stroke-miterlimit="10" stroke-linecap="round" stroke-linejoin="round"/>
<path d="M158.289 120.325C158.803 136.401 162.09 152.114 164.145 167.982C165.892 179.806 165.532 191.785 167.69 203.557C176.217 253.392 187.313 302.967 191.731 353.425C192.707 366.804 193.683 380.443 191.32 393.718C189.008 403.156 183.974 411.713 182.176 421.358C176.885 443.709 176.782 466.889 177.09 489.81C177.604 515.583 178.272 541.512 183.614 566.819C193.374 613.853 205.446 660.733 207.039 709.064" stroke="black" stroke-width="0.9899" stroke-miterlimit="10" stroke-linecap="round" stroke-linejoin="round"/>
<path d="M177.449 117.889C177.86 131.579 184.025 143.817 187.261 156.886C192.809 195.156 199.487 233.324 205.292 271.646C209.966 306.598 216.028 341.913 214.127 377.228C212.997 388.741 207.192 399.112 205.548 410.521C202.055 427.945 202.004 445.888 202.569 463.623C203.134 477.573 203.545 491.678 206.113 505.472C211.405 535.031 222.038 563.293 230.617 591.97C239.863 622.203 247.106 653.214 249.829 684.795" stroke="black" stroke-width="0.9899" stroke-miterlimit="10" stroke-linecap="round" stroke-linejoin="round"/>
<path d="M196.664 115.45C197.794 131.215 206.167 131.267 210.893 143.298C214.541 154.914 215.106 167.204 217.315 179.183C220.654 201.482 223.736 223.884 226.613 246.287C231.082 284.921 236.63 323.762 235.859 362.707C235.756 369.293 233.188 375.308 231.801 381.635C229.181 391.281 227.486 401.133 227.28 411.194C226.561 440.13 230.311 469.222 240.636 496.344C260.157 549.861 285.893 601.874 293.085 659.073" stroke="black" stroke-width="0.9899" stroke-miterlimit="10" stroke-linecap="round" stroke-linejoin="round"/>
<path d="M215.824 113.014C218.701 128.675 224.352 120.066 232.519 125.926C239.197 134.69 238.324 146.929 240.43 157.404C242.639 173.946 244.488 190.541 246.286 207.187C249.625 238.82 252.553 270.557 254.814 302.294C255.79 317.747 257.074 333.305 256.971 348.706C256.252 357.003 254.146 364.99 252.656 373.131C249.574 404.038 256.817 435.308 269.146 463.571C293.29 519.836 325.19 573.82 335.721 634.96" stroke="black" stroke-width="0.9899" stroke-miterlimit="10" stroke-linecap="round" stroke-linejoin="round"/>
<path d="M234.984 110.577C240.532 133.083 257.998 90.3008 262.518 133.135C269.505 190.593 271.508 248.674 275.875 306.391C276.44 316.452 277.827 326.408 277.827 336.417C278.083 343.314 276.337 350.055 276.645 356.952C278.135 379.251 282.244 401.602 291.44 422.137C319.539 486.441 362.227 545.092 376.919 614.84" stroke="black" stroke-width="0.9899" stroke-miterlimit="10" stroke-linecap="round" stroke-linejoin="round"/>
<path d="M254.195 108.192C259.589 129.194 277.106 87.3967 283.373 113.377C287.586 133.757 287.637 154.915 288.87 175.658C290.205 205.528 290.976 235.502 292.774 265.32C293.647 285.907 296.883 306.236 300.325 326.46C303.562 349.848 307.157 373.702 315.993 395.742C346.455 465.646 397.671 526.371 415.547 601.72" stroke="black" stroke-width="0.9899" stroke-miterlimit="10" stroke-linecap="round" stroke-linejoin="round"/>
<path d="M273.355 105.805C279.006 125.044 297.14 89.4702 304.28 110.058C309.776 127.482 309.52 146.202 310.907 164.301C312.448 193.548 313.167 222.952 316.044 252.095C317.996 274.29 324.314 295.708 327.653 317.643C332.636 341.809 335.41 366.804 345.119 389.674C377.225 460.355 429.776 521.495 450.581 597.467" stroke="black" stroke-width="0.9899" stroke-miterlimit="10" stroke-linecap="round" stroke-linejoin="round"/>
<path d="M292.52 103.368C298.633 121.363 318.461 97.975 325.704 119.081C331.869 135.831 332.485 154.033 334.386 171.613C337.211 200.549 338.341 229.952 345.122 258.267C352.519 286.218 356.064 314.999 362.485 343.157C366.184 360.53 369.112 378.213 377.125 394.237C409.848 463.104 459.008 524.088 481.662 597.83" stroke="black" stroke-width="0.9899" stroke-miterlimit="10" stroke-linecap="round" stroke-linejoin="round"/>
<path d="M311.73 100.983C316.97 117.578 338.186 114.155 344.967 130.127C355.035 150.974 356.062 174.777 359.607 197.387C361.713 212.27 363.819 227.257 367.415 241.829C369.367 250.281 373.014 258.164 374.453 266.72C380.258 293.427 386.319 320.03 392.74 346.633C397.415 366.287 401.216 386.356 410.514 404.506C442.518 470.728 487.055 530.934 510.171 601.357" stroke="black" stroke-width="0.9899" stroke-miterlimit="10" stroke-linecap="round" stroke-linejoin="round"/>
<path d="M330.891 98.6494C335.36 111.977 346.353 121.052 355.086 131.475C362.432 139.824 366.644 150.196 370.856 160.36C379.486 183.177 381.592 207.861 388.014 231.353C390.377 240.532 393.253 249.555 397.157 258.163C400.085 269.883 403.116 281.499 406.25 293.167C412.311 315.673 418.784 338.076 425 360.582C430.291 380.858 435.787 401.134 445.393 419.855C475.65 482.24 514.434 540.683 537.14 606.646" stroke="black" stroke-width="0.9899" stroke-miterlimit="10" stroke-linecap="round" stroke-linejoin="round"/>
<path d="M350.051 96.3672C356.421 114.31 367.516 129.971 376.506 146.617C383.236 158.078 387.397 170.731 393.099 182.606C401.729 202.779 405.787 224.611 413.698 245.095C415.958 251.11 418.424 256.866 421.249 262.622C425.102 275.742 429.16 288.862 433.372 301.879C444.006 334.445 455.05 366.856 465.221 399.578C476.317 431.315 492.601 460.874 507.755 490.744C528.201 530.363 548.44 570.345 563.697 612.402" stroke="black" stroke-width="0.9899" stroke-miterlimit="10" stroke-linecap="round" stroke-linejoin="round"/>
<path d="M369.266 94.0342C379.077 121.156 392.176 146.929 403.067 173.636C408.101 187.585 414.471 200.809 420.841 214.136C428.495 231.872 435.635 249.866 444.419 267.083C462.347 316.451 481.765 365.405 499.642 414.825C527.381 483.484 565.241 547.632 591.182 617.121" stroke="black" stroke-width="0.9899" stroke-miterlimit="10" stroke-linecap="round" stroke-linejoin="round"/>
<path d="M8.95711 178.043C9.62492 177.784 8.95712 178.614 8.64891 178.562C8.39206 178.406 8.803 178.095 8.95711 178.043Z" fill="black" stroke="black" stroke-width="5.0493" stroke-miterlimit="10"/>
<path d="M9.10978 207.965C9.9317 207.602 9.05841 209.054 8.85293 208.432C8.80156 208.277 8.9043 208.069 9.10978 207.965Z" fill="black" stroke="black" stroke-width="5.0493" stroke-miterlimit="10"/>
<path d="M7.93008 192.2C8.44378 191.941 8.2383 192.563 7.93008 192.719C7.41638 192.926 7.62186 192.304 7.93008 192.2Z" fill="black" stroke="black" stroke-width="5.0493" stroke-miterlimit="10"/>
<path d="M27.1931 167.257C27.8609 166.946 27.1417 167.828 26.8849 167.776C26.6794 167.672 27.0903 167.309 27.1931 167.257Z" fill="black" stroke="black" stroke-width="5.0493" stroke-miterlimit="10"/>
<path d="M25.4997 180.739C26.0134 180.428 25.7566 181.05 25.4997 181.206C24.986 181.517 25.2429 180.895 25.4997 180.739Z" fill="black" stroke="black" stroke-width="5.0493" stroke-miterlimit="10"/>
<path d="M25.6012 195.622C26.3717 195.156 25.4984 196.66 25.293 196.141C25.293 195.985 25.4471 195.778 25.6012 195.622Z" fill="black" stroke="black" stroke-width="5.0493" stroke-miterlimit="10"/>
<path d="M26.4211 211.544C26.8835 211.181 26.678 211.907 26.4725 212.062C26.0102 212.425 26.1643 211.699 26.4211 211.544Z" fill="black" stroke="black" stroke-width="5.0493" stroke-miterlimit="10"/>
<path d="M45.3767 155.64C45.9931 155.329 45.3253 156.159 45.0685 156.107C44.863 156.055 45.2739 155.692 45.3767 155.64Z" fill="black" stroke="black" stroke-width="5.0493" stroke-miterlimit="10"/>
<path d="M41.1139 213.098C41.5762 212.735 41.3194 213.461 41.0625 213.617C40.6515 214.032 40.9084 213.254 41.1139 213.098Z" fill="black" stroke="black" stroke-width="5.0493" stroke-miterlimit="10"/>
<path d="M41.6794 197.541C42.1417 197.178 41.9362 197.904 41.6794 198.059C41.1657 198.422 41.4225 197.696 41.6794 197.541Z" fill="black" stroke="black" stroke-width="5.0493" stroke-miterlimit="10"/>
<path d="M42.0388 182.554C42.5525 182.243 42.2956 182.865 42.0388 183.02C41.5251 183.383 41.7819 182.709 42.0388 182.554Z" fill="black" stroke="black" stroke-width="5.0493" stroke-miterlimit="10"/>
<path d="M43.0167 168.449C43.5304 168.138 43.2735 168.76 42.9653 168.916C42.4516 169.227 42.7599 168.605 43.0167 168.449Z" fill="black" stroke="black" stroke-width="5.0493" stroke-miterlimit="10"/>
<path d="M63.6153 144.387C64.2831 144.076 63.564 144.906 63.3071 144.854C63.0503 144.75 63.5126 144.491 63.6153 144.387Z" fill="black" stroke="black" stroke-width="5.0493" stroke-miterlimit="10"/>
<path d="M59.1955 170.265C60.0174 169.85 58.99 171.199 58.8359 170.68C58.8359 170.576 58.9901 170.369 59.1955 170.265Z" fill="black" stroke="black" stroke-width="5.0493" stroke-miterlimit="10"/>
<path d="M57.9106 184.524C58.4243 184.213 58.1675 184.836 57.8592 184.991C57.3455 185.302 57.6024 184.68 57.9106 184.524Z" fill="black" stroke="black" stroke-width="5.0493" stroke-miterlimit="10"/>
<path d="M60.8897 156.781C61.4547 156.522 61.0951 157.092 60.8383 157.196C60.2732 157.507 60.5814 156.936 60.8897 156.781Z" fill="black" stroke="black" stroke-width="5.0493" stroke-miterlimit="10"/>
<path d="M56.4737 199.408C56.9874 199.097 56.6792 199.771 56.4224 199.927C55.9087 200.186 56.2169 199.512 56.4737 199.408Z" fill="black" stroke="black" stroke-width="5.0493" stroke-miterlimit="10"/>
<path d="M54.3163 214.655C54.83 214.344 54.4704 215.018 54.2136 215.174C53.7513 215.485 54.1109 214.759 54.3163 214.655Z" fill="black" stroke="black" stroke-width="5.0493" stroke-miterlimit="10"/>
<path d="M82.0056 134.741C82.6734 134.534 82.0056 135.26 81.6974 135.208C81.4919 135.104 81.9029 134.845 82.0056 134.741Z" fill="black" stroke="black" stroke-width="5.0493" stroke-miterlimit="10"/>
<path d="M70.8572 221.085C71.8332 220.878 70.8572 222.589 70.549 221.655C70.4976 221.396 70.6517 221.137 70.8572 221.085Z" fill="black" stroke="black" stroke-width="5.0493" stroke-miterlimit="10"/>
<path d="M72.2938 203.816C73.2184 203.557 71.9856 204.802 71.8828 204.231C71.8828 204.076 72.0883 203.92 72.2938 203.816Z" fill="black" stroke="black" stroke-width="5.0493" stroke-miterlimit="10"/>
<path d="M76.0965 174.206C76.6616 173.999 76.4047 174.569 76.0452 174.673C75.4801 174.88 75.7369 174.362 76.0965 174.206Z" fill="black" stroke="black" stroke-width="5.0493" stroke-miterlimit="10"/>
<path d="M74.4012 188.777C74.9663 188.57 74.7094 189.14 74.3498 189.244C73.7848 189.452 74.0416 188.881 74.4012 188.777Z" fill="black" stroke="black" stroke-width="5.0493" stroke-miterlimit="10"/>
<path d="M77.6903 160.307C78.2554 160.1 77.9985 160.618 77.6389 160.774C77.0738 160.929 77.3307 160.411 77.6903 160.307Z" fill="black" stroke="black" stroke-width="5.0493" stroke-miterlimit="10"/>
<path d="M79.5381 147.084C80.1031 146.876 79.7949 147.395 79.4867 147.499C78.9217 147.706 79.2299 147.187 79.5381 147.084Z" fill="black" stroke="black" stroke-width="5.0493" stroke-miterlimit="10"/>
<path d="M100.756 127.949C101.27 127.845 101.064 128.312 100.705 128.363C100.242 128.519 100.448 128 100.756 127.949Z" fill="black" stroke="black" stroke-width="5.0493" stroke-miterlimit="10"/>
<path d="M97.2624 168.398C97.8788 168.346 97.7247 168.812 97.2111 168.864C96.646 168.968 96.8001 168.449 97.2624 168.398Z" fill="black" stroke="black" stroke-width="5.0493" stroke-miterlimit="10"/>
<path d="M94.999 198.527C95.6668 198.475 95.5127 199.045 94.9476 199.045C94.2798 199.097 94.4339 198.579 94.999 198.527Z" fill="black" stroke="black" stroke-width="5.0493" stroke-miterlimit="10"/>
<path d="M96.2323 183.176C96.8488 183.125 96.746 183.643 96.181 183.695C95.5645 183.695 95.6673 183.228 96.2323 183.176Z" fill="black" stroke="black" stroke-width="5.0493" stroke-miterlimit="10"/>
<path d="M99.4187 140.757C100.395 140.705 99.1619 141.587 99.0078 141.068C99.0592 140.965 99.2133 140.809 99.4187 140.757Z" fill="black" stroke="black" stroke-width="5.0493" stroke-miterlimit="10"/>
<path d="M98.2885 154.292C98.8535 154.24 98.6995 154.707 98.2371 154.759C97.7234 154.811 97.8262 154.344 98.2885 154.292Z" fill="black" stroke="black" stroke-width="5.0493" stroke-miterlimit="10"/>
<path d="M94.3842 215.899C95.0007 215.847 95.1034 216.625 94.4869 216.677C93.8705 216.729 93.7164 215.951 94.3842 215.899Z" fill="black" stroke="black" stroke-width="5.0493" stroke-miterlimit="10"/>
<path d="M119.917 124.837C120.585 124.785 120.071 125.511 119.66 125.252C119.403 125.096 119.711 124.837 119.917 124.837Z" fill="black" stroke="black" stroke-width="5.0493" stroke-miterlimit="10"/>
<path d="M119.917 138.839C120.379 138.787 120.379 139.305 119.917 139.305C119.403 139.357 119.455 138.839 119.917 138.839Z" fill="black" stroke="black" stroke-width="5.0493" stroke-miterlimit="10"/>
<path d="M120.069 167.464C120.583 167.412 120.532 167.93 120.069 167.93C119.556 167.982 119.607 167.464 120.069 167.464Z" fill="black" stroke="black" stroke-width="5.0493" stroke-miterlimit="10"/>
<path d="M120.533 216.469C121.047 216.418 121.15 217.144 120.585 217.195C120.071 217.247 119.968 216.521 120.533 216.469Z" fill="black" stroke="black" stroke-width="5.0493" stroke-miterlimit="10"/>
<path d="M120.225 198.735C120.79 198.683 120.739 199.253 120.225 199.305C119.66 199.357 119.711 198.787 120.225 198.735Z" fill="black" stroke="black" stroke-width="5.0493" stroke-miterlimit="10"/>
<path d="M119.968 152.944C120.482 152.892 120.43 153.411 119.968 153.411C119.454 153.463 119.505 152.996 119.968 152.944Z" fill="black" stroke="black" stroke-width="5.0493" stroke-miterlimit="10"/>
<path d="M120.17 182.607C120.684 182.555 120.633 183.074 120.17 183.126C119.605 183.178 119.657 182.659 120.17 182.607Z" fill="black" stroke="black" stroke-width="5.0493" stroke-miterlimit="10"/>
<path d="M139.077 122.503C139.745 122.452 139.283 123.229 138.82 122.97C138.563 122.763 138.872 122.503 139.077 122.503Z" fill="black" stroke="black" stroke-width="5.0493" stroke-miterlimit="10"/>
<path d="M141.027 163.367C141.593 163.212 141.49 163.678 141.079 163.834C140.462 163.938 140.565 163.471 141.027 163.367Z" fill="black" stroke="black" stroke-width="5.0493" stroke-miterlimit="10"/>
<path d="M141.851 177.318C142.468 177.11 142.313 177.681 141.851 177.784C141.286 177.992 141.389 177.473 141.851 177.318Z" fill="black" stroke="black" stroke-width="5.0493" stroke-miterlimit="10"/>
<path d="M142.516 192.926C143.132 192.718 142.978 193.341 142.516 193.496C141.9 193.704 142.054 193.081 142.516 192.926Z" fill="black" stroke="black" stroke-width="5.0493" stroke-miterlimit="10"/>
<path d="M139.487 136.816C139.95 136.764 139.95 137.23 139.487 137.282C139.025 137.334 139.025 136.867 139.487 136.816Z" fill="black" stroke="black" stroke-width="5.0493" stroke-miterlimit="10"/>
<path d="M140.207 150.144C141.183 150.04 140.053 150.974 139.848 150.455C139.796 150.351 140.002 150.196 140.207 150.144Z" fill="black" stroke="black" stroke-width="5.0493" stroke-miterlimit="10"/>
<path d="M143.392 211.077C144.009 210.869 143.958 211.647 143.495 211.803C142.879 212.01 142.93 211.232 143.392 211.077Z" fill="black" stroke="black" stroke-width="5.0493" stroke-miterlimit="10"/>
<path d="M158.238 120.118C158.7 120.066 158.7 120.585 158.238 120.636C157.827 120.688 157.827 120.118 158.238 120.118Z" fill="black" stroke="black" stroke-width="5.0493" stroke-miterlimit="10"/>
<path d="M162.348 155.64C163.375 155.329 162.245 156.366 161.988 156.003C161.988 155.848 162.142 155.692 162.348 155.64Z" fill="black" stroke="black" stroke-width="5.0493" stroke-miterlimit="10"/>
<path d="M165.481 181.103C166.56 180.584 165.327 182.14 165.07 181.621C165.07 181.466 165.224 181.206 165.481 181.103Z" fill="black" stroke="black" stroke-width="5.0493" stroke-miterlimit="10"/>
<path d="M164.043 167.154C164.66 166.843 164.557 167.361 164.095 167.569C163.478 167.88 163.581 167.413 164.043 167.154Z" fill="black" stroke="black" stroke-width="5.0493" stroke-miterlimit="10"/>
<path d="M160.653 144.958C161.167 144.802 161.167 145.165 160.704 145.321C160.191 145.425 160.191 145.062 160.653 144.958Z" fill="black" stroke="black" stroke-width="5.0493" stroke-miterlimit="10"/>
<path d="M159.213 133.6C159.675 133.497 159.726 133.912 159.264 134.015C158.802 134.067 158.75 133.652 159.213 133.6Z" fill="black" stroke="black" stroke-width="5.0493" stroke-miterlimit="10"/>
<path d="M166.97 198.889C167.638 198.526 167.535 199.408 167.073 199.615C166.405 200.03 166.508 199.149 166.97 198.889Z" fill="black" stroke="black" stroke-width="5.0493" stroke-miterlimit="10"/>
<path d="M177.451 117.682C177.913 117.578 177.913 118.148 177.502 118.148C177.04 118.252 176.989 117.682 177.451 117.682Z" fill="black" stroke="black" stroke-width="5.0493" stroke-miterlimit="10"/>
<path d="M183.922 145.58C184.435 145.321 184.487 145.58 184.024 145.839C183.459 146.099 183.408 145.787 183.922 145.58Z" fill="black" stroke="black" stroke-width="5.0493" stroke-miterlimit="10"/>
<path d="M186.541 153.929C187.158 153.566 187.106 153.98 186.644 154.24C186.028 154.603 186.028 154.24 186.541 153.929Z" fill="black" stroke="black" stroke-width="5.0493" stroke-miterlimit="10"/>
<path d="M181.301 138.165C181.815 138.01 181.866 138.269 181.404 138.424C180.89 138.58 180.839 138.321 181.301 138.165Z" fill="black" stroke="black" stroke-width="5.0493" stroke-miterlimit="10"/>
<path d="M179.041 129.556C179.503 129.452 179.555 129.763 179.092 129.867C178.63 129.971 178.579 129.66 179.041 129.556Z" fill="black" stroke="black" stroke-width="5.0493" stroke-miterlimit="10"/>
<path d="M188.801 165.39C189.469 164.975 189.315 165.546 188.852 165.857C188.236 166.272 188.339 165.649 188.801 165.39Z" fill="black" stroke="black" stroke-width="5.0493" stroke-miterlimit="10"/>
<path d="M195.841 212.217C196.56 211.802 196.457 213.202 196.046 213.41C195.276 213.773 195.379 212.424 195.841 212.217Z" fill="black" stroke="black" stroke-width="5.0493" stroke-miterlimit="10"/>
<path d="M190.909 182.347C192.039 181.725 190.908 183.851 190.549 183.073C190.498 182.866 190.652 182.555 190.909 182.347Z" fill="black" stroke="black" stroke-width="5.0493" stroke-miterlimit="10"/>
<path d="M196.609 115.243C197.02 115.139 197.123 115.658 196.66 115.658C196.249 115.762 196.147 115.295 196.609 115.243Z" fill="black" stroke="black" stroke-width="5.0493" stroke-miterlimit="10"/>
<path d="M209.145 139.358C209.711 138.995 209.762 139.254 209.248 139.565C208.683 139.928 208.58 139.669 209.145 139.358Z" fill="black" stroke="black" stroke-width="5.0493" stroke-miterlimit="10"/>
<path d="M205.547 134.482C206.01 134.223 206.215 134.327 205.65 134.586C205.188 134.897 205.034 134.793 205.547 134.482Z" fill="black" stroke="black" stroke-width="5.0493" stroke-miterlimit="10"/>
<path d="M202.004 130.645C202.21 130.593 202.415 130.541 202.415 130.593C202.415 130.8 201.028 131.059 202.004 130.645Z" fill="black" stroke="black" stroke-width="5.0493" stroke-miterlimit="10"/>
<path d="M212.279 147.966C212.895 147.499 212.844 148.018 212.381 148.329C211.714 148.796 211.765 148.277 212.279 147.966Z" fill="black" stroke="black" stroke-width="5.0493" stroke-miterlimit="10"/>
<path d="M198.872 125.148C199.334 125.044 199.437 125.252 198.974 125.407C198.512 125.511 198.358 125.252 198.872 125.148Z" fill="black" stroke="black" stroke-width="5.0493" stroke-miterlimit="10"/>
<path d="M214.95 163.834C215.67 163.367 215.516 164.352 215.053 164.612C214.334 165.078 214.488 164.145 214.95 163.834Z" fill="black" stroke="black" stroke-width="5.0493" stroke-miterlimit="10"/>
<path d="M219.418 193.86C220.548 193.341 219.521 196.142 219.059 194.793C219.059 194.482 219.213 194.067 219.418 193.86Z" fill="black" stroke="black" stroke-width="5.0493" stroke-miterlimit="10"/>
<path d="M215.77 112.806C216.181 112.702 216.284 113.169 215.821 113.221C215.462 113.273 215.359 112.858 215.77 112.806Z" fill="black" stroke="black" stroke-width="5.0493" stroke-miterlimit="10"/>
<path d="M247.105 214.81C247.824 214.395 247.618 216.054 247.259 216.21C246.54 216.573 246.694 214.965 247.105 214.81Z" fill="black" stroke="black" stroke-width="5.0493" stroke-miterlimit="10"/>
<path d="M235.601 131.008C236.218 130.593 236.218 130.956 235.704 131.319C235.139 131.734 235.088 131.371 235.601 131.008Z" fill="black" stroke="black" stroke-width="5.0493" stroke-miterlimit="10"/>
<path d="M231.593 125.149C232.055 124.837 232.312 124.889 231.747 125.252C231.284 125.512 231.028 125.46 231.593 125.149Z" fill="black" stroke="black" stroke-width="5.0493" stroke-miterlimit="10"/>
<path d="M227.125 123.696C227.33 123.592 227.536 123.488 227.587 123.488C227.587 123.592 226.149 124.162 227.125 123.696Z" fill="black" stroke="black" stroke-width="5.0493" stroke-miterlimit="10"/>
<path d="M238.783 145.736C239.502 145.321 239.348 146.254 238.886 146.514C238.218 146.928 238.372 145.995 238.783 145.736Z" fill="black" stroke="black" stroke-width="5.0493" stroke-miterlimit="10"/>
<path d="M222.605 123.385C222.81 123.333 223.016 123.281 223.067 123.281C223.067 123.385 221.732 123.696 222.605 123.385Z" fill="black" stroke="black" stroke-width="5.0493" stroke-miterlimit="10"/>
<path d="M242.741 175.554C243.46 175.139 243.306 176.539 242.895 176.747C242.176 177.11 242.33 175.761 242.741 175.554Z" fill="black" stroke="black" stroke-width="5.0493" stroke-miterlimit="10"/>
<path d="M218.698 120.845C219.109 120.741 219.314 120.897 218.8 121C218.389 121.104 218.133 120.948 218.698 120.845Z" fill="black" stroke="black" stroke-width="5.0493" stroke-miterlimit="10"/>
<path d="M234.984 110.369C235.138 110.317 235.549 110.472 235.292 110.628C234.933 110.991 234.265 110.524 234.984 110.369Z" fill="black" stroke="black" stroke-width="5.0493" stroke-miterlimit="10"/>
<path d="M243.1 117.162C243.306 117.111 243.511 117.059 243.563 117.007C243.511 117.007 242.227 117.37 243.1 117.162Z" fill="black" stroke="black" stroke-width="5.0493" stroke-miterlimit="10"/>
<path d="M253.785 113.014C253.99 112.91 254.247 112.807 254.247 112.807C254.247 112.962 252.809 113.481 253.785 113.014Z" fill="black" stroke="black" stroke-width="5.0493" stroke-miterlimit="10"/>
<path d="M258.511 116.695C259.024 116.384 259.179 116.643 258.665 116.954C258.1 117.266 257.946 117.006 258.511 116.695Z" fill="black" stroke="black" stroke-width="5.0493" stroke-miterlimit="10"/>
<path d="M262.158 130.438C263.289 130.023 262.158 131.89 261.799 131.06C261.748 130.853 261.902 130.594 262.158 130.438Z" fill="black" stroke="black" stroke-width="5.0493" stroke-miterlimit="10"/>
<path d="M248.39 114.466C248.595 114.363 248.801 114.311 248.852 114.259C248.852 114.259 247.517 114.829 248.39 114.466Z" fill="black" stroke="black" stroke-width="5.0493" stroke-miterlimit="10"/>
<path d="M238.373 117.11C238.733 117.058 239.041 117.11 238.528 117.214C238.168 117.266 237.86 117.214 238.373 117.11Z" fill="black" stroke="black" stroke-width="5.0493" stroke-miterlimit="10"/>
<path d="M265.444 159.322C266.112 159.011 265.958 160.308 265.547 160.463C264.879 160.774 265.085 159.478 265.444 159.322Z" fill="black" stroke="black" stroke-width="5.0493" stroke-miterlimit="10"/>
<path d="M268.577 197.282C269.245 196.97 269.039 198.474 268.68 198.63C268.012 198.941 268.217 197.437 268.577 197.282Z" fill="black" stroke="black" stroke-width="5.0493" stroke-miterlimit="10"/>
<path d="M254.144 108.035C254.298 108.035 254.503 108.035 254.555 108.191C254.452 108.709 253.271 108.191 254.144 108.035Z" fill="black" stroke="black" stroke-width="5.0493" stroke-miterlimit="10"/>
<path d="M269.297 108.139C269.503 108.087 269.708 108.035 269.759 107.983C269.811 107.828 268.424 108.295 269.297 108.139Z" fill="black" stroke="black" stroke-width="5.0493" stroke-miterlimit="10"/>
<path d="M275.36 104.716C275.565 104.664 275.771 104.612 275.822 104.612C275.873 104.612 274.486 104.975 275.36 104.716Z" fill="black" stroke="black" stroke-width="5.0493" stroke-miterlimit="10"/>
<path d="M280.753 107.154C281.215 106.998 281.472 107.206 280.907 107.361C280.445 107.517 280.188 107.309 280.753 107.154Z" fill="black" stroke="black" stroke-width="5.0493" stroke-miterlimit="10"/>
<path d="M284.71 120.377C285.275 120.222 285.326 120.948 284.813 121.103C284.248 121.259 284.248 120.533 284.71 120.377Z" fill="black" stroke="black" stroke-width="5.0493" stroke-miterlimit="10"/>
<path d="M263.288 112.858C263.494 112.806 263.699 112.754 263.751 112.754C263.751 112.599 262.415 112.962 263.288 112.858Z" fill="black" stroke="black" stroke-width="5.0493" stroke-miterlimit="10"/>
<path d="M289.179 182.918C289.795 182.711 289.589 184.059 289.23 184.163C288.613 184.422 288.819 183.022 289.179 182.918Z" fill="black" stroke="black" stroke-width="5.0493" stroke-miterlimit="10"/>
<path d="M290.666 222.434C291.283 222.123 291.026 223.627 290.717 223.73C290.152 224.041 290.409 222.538 290.666 222.434Z" fill="black" stroke="black" stroke-width="5.0493" stroke-miterlimit="10"/>
<path d="M257.996 114.31C258.201 114.31 258.407 114.258 258.407 114.31C258.407 114.414 257.122 114.466 257.996 114.31Z" fill="black" stroke="black" stroke-width="5.0493" stroke-miterlimit="10"/>
<path d="M287.329 147.292C287.945 147.084 287.791 148.225 287.38 148.381C286.815 148.588 286.918 147.447 287.329 147.292Z" fill="black" stroke="black" stroke-width="5.0493" stroke-miterlimit="10"/>
<path d="M273.306 105.599C273.46 105.599 273.665 105.599 273.717 105.754C273.665 106.273 272.484 105.806 273.306 105.599Z" fill="black" stroke="black" stroke-width="5.0493" stroke-miterlimit="10"/>
<path d="M296.266 103.42C296.471 103.472 296.677 103.472 296.728 103.472C296.78 103.42 295.393 103.264 296.266 103.42Z" fill="black" stroke="black" stroke-width="5.0493" stroke-miterlimit="10"/>
<path d="M302.07 106.013C302.43 106.065 302.841 106.324 302.224 106.22C301.916 106.22 301.505 105.961 302.07 106.013Z" fill="black" stroke="black" stroke-width="5.0493" stroke-miterlimit="10"/>
<path d="M289.742 106.324C289.948 106.324 290.153 106.324 290.205 106.272C290.256 106.065 288.869 106.22 289.742 106.324Z" fill="black" stroke="black" stroke-width="5.0493" stroke-miterlimit="10"/>
<path d="M283.221 110.472C283.427 110.472 283.632 110.42 283.683 110.42C283.735 110.265 282.399 110.472 283.221 110.472Z" fill="black" stroke="black" stroke-width="5.0493" stroke-miterlimit="10"/>
<path d="M306.54 118.304C306.951 118.304 307.259 118.978 306.643 118.926C306.232 118.926 305.924 118.252 306.54 118.304Z" fill="black" stroke="black" stroke-width="5.0493" stroke-miterlimit="10"/>
<path d="M277.519 111.613C277.724 111.561 277.93 111.561 277.981 111.613C277.981 111.717 276.646 111.769 277.519 111.613Z" fill="black" stroke="black" stroke-width="5.0493" stroke-miterlimit="10"/>
<path d="M309.417 141.795C309.931 141.743 310.033 142.728 309.468 142.728C309.006 142.728 308.903 141.795 309.417 141.795Z" fill="black" stroke="black" stroke-width="5.0493" stroke-miterlimit="10"/>
<path d="M312.911 207.446C314.092 207.187 312.808 209.624 312.5 208.224C312.5 207.913 312.654 207.55 312.911 207.446Z" fill="black" stroke="black" stroke-width="5.0493" stroke-miterlimit="10"/>
<path d="M311.32 172.857C311.936 172.754 311.885 173.894 311.371 173.946C310.755 174.102 310.806 172.961 311.32 172.857Z" fill="black" stroke="black" stroke-width="5.0493" stroke-miterlimit="10"/>
<path d="M292.467 103.16C292.826 103.056 293.083 103.471 292.569 103.523C292.21 103.627 292.004 103.212 292.467 103.16Z" fill="black" stroke="black" stroke-width="5.0493" stroke-miterlimit="10"/>
<path d="M309.931 109.695C310.137 109.747 310.342 109.799 310.393 109.799C310.496 109.643 309.058 109.436 309.931 109.695Z" fill="black" stroke="black" stroke-width="5.0493" stroke-miterlimit="10"/>
<path d="M303.1 110.784C303.306 110.784 303.511 110.837 303.562 110.784C303.614 110.784 302.278 110.731 303.1 110.784Z" fill="black" stroke="black" stroke-width="5.0493" stroke-miterlimit="10"/>
<path d="M316.817 109.695C317.022 109.799 317.228 109.851 317.279 109.903C317.33 109.851 315.943 109.28 316.817 109.695Z" fill="black" stroke="black" stroke-width="5.0493" stroke-miterlimit="10"/>
<path d="M297.038 109.747C297.243 109.747 297.449 109.747 297.5 109.799C297.551 109.903 296.216 109.799 297.038 109.747Z" fill="black" stroke="black" stroke-width="5.0493" stroke-miterlimit="10"/>
<path d="M323.031 114.103C323.236 114.206 323.442 114.362 323.493 114.466C323.493 114.673 322.157 113.636 323.031 114.103Z" fill="black" stroke="black" stroke-width="5.0493" stroke-miterlimit="10"/>
<path d="M334.434 171.924C334.897 171.976 335.102 172.909 334.537 172.857C334.075 172.857 333.818 171.872 334.434 171.924Z" fill="black" stroke="black" stroke-width="5.0493" stroke-miterlimit="10"/>
<path d="M331.711 145.891C332.07 145.995 332.43 146.825 331.813 146.669C331.402 146.617 331.043 145.736 331.711 145.891Z" fill="black" stroke="black" stroke-width="5.0493" stroke-miterlimit="10"/>
<path d="M336.95 200.86C337.515 200.809 337.618 201.794 337.053 201.846C336.488 201.898 336.385 200.912 336.95 200.86Z" fill="black" stroke="black" stroke-width="5.0493" stroke-miterlimit="10"/>
<path d="M328.015 125.926C328.323 126.03 328.785 126.756 328.169 126.445C327.861 126.341 327.398 125.667 328.015 125.926Z" fill="black" stroke="black" stroke-width="5.0493" stroke-miterlimit="10"/>
<path d="M311.626 100.827C311.78 100.827 311.986 100.827 312.037 100.983C312.037 101.449 310.804 100.983 311.626 100.827Z" fill="black" stroke="black" stroke-width="5.0493" stroke-miterlimit="10"/>
<path d="M343.785 128.155C343.99 128.311 344.195 128.518 344.247 128.622C344.247 128.881 342.911 127.481 343.785 128.155Z" fill="black" stroke="black" stroke-width="5.0493" stroke-miterlimit="10"/>
<path d="M337.209 120.792C337.415 120.896 337.62 121.051 337.672 121.103C337.723 121.155 336.387 120.273 337.209 120.792Z" fill="black" stroke="black" stroke-width="5.0493" stroke-miterlimit="10"/>
<path d="M316.559 109.072C316.868 109.072 317.279 109.228 316.765 109.28C316.457 109.28 315.994 109.072 316.559 109.072Z" fill="black" stroke="black" stroke-width="5.0493" stroke-miterlimit="10"/>
<path d="M349.28 140.55C349.588 140.758 350.102 141.484 349.434 141.017C349.126 140.809 348.612 140.083 349.28 140.55Z" fill="black" stroke="black" stroke-width="5.0493" stroke-miterlimit="10"/>
<path d="M330.018 116.695C330.223 116.799 330.429 116.851 330.48 116.903C330.532 116.903 329.196 116.332 330.018 116.695Z" fill="black" stroke="black" stroke-width="5.0493" stroke-miterlimit="10"/>
<path d="M353.596 157.559C353.904 157.715 354.367 158.545 353.699 158.234C353.391 158.026 352.928 157.196 353.596 157.559Z" fill="black" stroke="black" stroke-width="5.0493" stroke-miterlimit="10"/>
<path d="M322.926 113.532C323.183 113.584 323.748 113.74 323.132 113.636C322.875 113.636 322.31 113.48 322.926 113.532Z" fill="black" stroke="black" stroke-width="5.0493" stroke-miterlimit="10"/>
<path d="M360.326 202.935C360.583 202.987 360.788 203.194 360.788 203.453C360.737 204.387 359.299 202.883 360.326 202.935Z" fill="black" stroke="black" stroke-width="5.0493" stroke-miterlimit="10"/>
<path d="M357.036 179.08C357.395 179.184 357.806 180.066 357.139 179.858C356.779 179.754 356.368 178.873 357.036 179.08Z" fill="black" stroke="black" stroke-width="5.0493" stroke-miterlimit="10"/>
<path d="M330.841 98.4934C331.046 98.4416 331.406 98.5972 331.2 98.8046C330.892 99.0639 330.122 98.5972 330.841 98.4934Z" fill="black" stroke="black" stroke-width="5.0493" stroke-miterlimit="10"/>
<path d="M357.5 134.535C357.705 134.69 357.911 134.846 358.013 134.949C358.065 135.053 357.962 135.001 357.757 134.846C357.5 134.69 356.883 134.172 357.5 134.535Z" fill="black" stroke="black" stroke-width="5.0493" stroke-miterlimit="10"/>
<path d="M364.434 145.632C364.639 145.84 364.845 146.047 364.896 146.203C364.948 146.462 363.561 144.906 364.434 145.632Z" fill="black" stroke="black" stroke-width="5.0493" stroke-miterlimit="10"/>
<path d="M370.341 159.219C370.546 159.426 370.752 159.686 370.803 159.789C370.752 160.049 369.416 158.389 370.341 159.219Z" fill="black" stroke="black" stroke-width="5.0493" stroke-miterlimit="10"/>
<path d="M342.652 117.68C342.858 117.732 343.063 117.835 343.115 117.887C343.217 118.198 341.83 117.524 342.652 117.68Z" fill="black" stroke="black" stroke-width="5.0493" stroke-miterlimit="10"/>
<path d="M350.05 125.719C350.256 125.822 350.461 125.978 350.564 126.03C350.564 126.237 349.177 125.356 350.05 125.719Z" fill="black" stroke="black" stroke-width="5.0493" stroke-miterlimit="10"/>
<path d="M375.222 173.791C375.428 173.946 375.633 174.257 375.684 174.361C375.582 174.88 374.246 173.116 375.222 173.791Z" fill="black" stroke="black" stroke-width="5.0493" stroke-miterlimit="10"/>
<path d="M336.029 109.072C336.337 109.072 336.799 109.383 336.234 109.383C335.926 109.383 335.515 109.124 336.029 109.072Z" fill="black" stroke="black" stroke-width="5.0493" stroke-miterlimit="10"/>
<path d="M379.281 191.371C379.589 191.526 380.103 192.304 379.435 191.993C379.076 191.837 378.613 191.059 379.281 191.371Z" fill="black" stroke="black" stroke-width="5.0493" stroke-miterlimit="10"/>
<path d="M350.001 96.1595C350.36 96.0558 350.669 96.5225 350.155 96.6262C349.744 96.678 349.487 96.2113 350.001 96.1595Z" fill="black" stroke="black" stroke-width="5.0493" stroke-miterlimit="10"/>
<path d="M377.789 149.002C378.046 149.158 378.662 149.832 378.046 149.469C377.789 149.314 377.172 148.588 377.789 149.002Z" fill="black" stroke="black" stroke-width="5.0493" stroke-miterlimit="10"/>
<path d="M370.035 135.208C370.292 135.26 370.908 135.882 370.292 135.675C370.035 135.571 369.418 135.001 370.035 135.208Z" fill="black" stroke="black" stroke-width="5.0493" stroke-miterlimit="10"/>
<path d="M355.548 109.279C355.908 109.228 356.319 109.694 355.754 109.694C355.394 109.746 354.983 109.279 355.548 109.279Z" fill="black" stroke="black" stroke-width="5.0493" stroke-miterlimit="10"/>
<path d="M362.431 122.14C362.637 122.192 362.842 122.296 362.893 122.452C362.996 122.918 361.558 122.037 362.431 122.14Z" fill="black" stroke="black" stroke-width="5.0493" stroke-miterlimit="10"/>
<path d="M369.16 93.7747C369.366 93.7228 369.725 93.9302 369.571 94.1377C369.212 94.5007 368.493 93.9302 369.16 93.7747Z" fill="black" stroke="black" stroke-width="5.0493" stroke-miterlimit="10"/>
<path d="M375.018 109.072C375.377 109.02 375.788 109.539 375.223 109.591C374.864 109.642 374.504 109.124 375.018 109.072Z" fill="black" stroke="black" stroke-width="5.0493" stroke-miterlimit="10"/>
<path d="M382.156 125.874C382.464 125.874 382.977 126.496 382.412 126.445C382.104 126.445 381.59 125.822 382.156 125.874Z" fill="black" stroke="black" stroke-width="5.0493" stroke-miterlimit="10"/>
</g>
</g>
</g>
</g>
<defs>
<filter id="filter0_f_7877_5545" x="-226" y="-121" width="741" height="741" filterUnits="userSpaceOnUse" color-interpolation-filters="sRGB">
<feFlood flood-opacity="0" result="BackgroundImageFix"/>
<feBlend mode="normal" in="SourceGraphic" in2="BackgroundImageFix" result="shape"/>
<feGaussianBlur stdDeviation="100" result="effect1_foregroundBlur_7877_5545"/>
</filter>
<linearGradient id="paint0_linear_7877_5545" x1="-6.67849e-06" y1="11" x2="742.705" y2="432.082" gradientUnits="userSpaceOnUse">
<stop stop-color="#9747FE"/>
<stop offset="1" stop-color="#9747FE" stop-opacity="0"/>
</linearGradient>
<linearGradient id="paint1_linear_7877_5545" x1="-6.67849e-06" y1="11" x2="742.705" y2="432.082" gradientUnits="userSpaceOnUse">
<stop stop-color="#9747FE"/>
<stop offset="1" stop-color="#9747FE" stop-opacity="0"/>
</linearGradient>
</defs>
</svg>
