<svg width="72" height="72" viewBox="0 0 72 72" fill="white" xmlns="http://www.w3.org/2000/svg">
<g clip-path="url(#clip0_321_199)">
<path d="M35.9998 0C16.1176 0 0 16.1176 0 35.9998C0 55.882 16.1176 72.0002 35.9998 72.0002C55.882 72.0002 72.0002 55.882 72.0002 35.9998C71.9778 16.1268 55.8734 0.022412 35.9998 0ZM35.9998 68.3998C18.1057 68.3998 3.59978 53.8939 3.59978 35.9998C3.59978 18.1057 18.1057 3.59978 35.9998 3.59978C53.8939 3.59978 68.3998 18.1057 68.3998 35.9998C68.3793 53.8853 53.8853 68.3793 35.9998 68.3998Z" fill="white"/>
<path d="M31.7866 22.0451C31.0378 21.3906 29.9007 21.467 29.2462 22.2152C28.5923 22.964 28.6687 24.1011 29.4169 24.7557L42.2683 36L29.4162 47.2449C28.6674 47.8995 28.5916 49.0366 29.2455 49.7847C29.9001 50.5336 31.0372 50.61 31.786 49.9555L46.1858 37.3553C46.5767 37.0138 46.8008 36.5194 46.8008 36C46.8008 35.4805 46.5767 34.9868 46.1858 34.6447L31.7866 22.0451Z" fill="white"/>
</g>
<defs>
<clipPath id="clip0_321_199">
<rect width="72" height="72" fill="white"/>
</clipPath>
</defs>
</svg>
