<svg width="31" height="31" viewBox="0 0 31 31" fill="none" xmlns="http://www.w3.org/2000/svg">
<path d="M26.0907 21.5348C25.2497 20.6875 23.2131 19.451 22.225 18.9527C20.9383 18.3046 20.8323 18.2516 19.8209 19.003C19.1463 19.5045 18.6978 19.9525 17.9082 19.7841C17.1187 19.6157 15.403 18.6662 13.9007 17.1687C12.3984 15.6712 11.3939 13.9057 11.225 13.1188C11.056 12.3319 11.5114 11.8887 12.0081 11.2125C12.7082 10.2593 12.6552 10.1005 12.0569 8.81368C11.5903 7.81286 10.3179 5.79532 9.46742 4.95865C8.55768 4.06003 8.55768 4.21889 7.97148 4.46247C7.49424 4.66327 7.0364 4.90735 6.60368 5.19165C5.75642 5.75455 5.28619 6.22213 4.95735 6.92482C4.62851 7.62752 4.48077 9.27491 6.17899 12.36C7.87722 15.4451 9.06868 17.0226 11.5347 19.4817C14.0008 21.9409 15.8971 23.2632 18.6692 24.8179C22.0985 26.7385 23.4138 26.3641 24.1187 26.0358C24.8235 25.7075 25.2932 25.2415 25.8571 24.3943C26.1422 23.9623 26.3868 23.5049 26.5879 23.028C26.832 22.444 26.9909 22.444 26.0907 21.5348Z" stroke="white" stroke-width="1.69452" stroke-miterlimit="10"/>
</svg>
