<svg width="120" height="121" viewBox="0 0 120 121" fill="none" xmlns="http://www.w3.org/2000/svg">
<g clip-path="url(#clip0_9546_1651)">
<path d="M111.992 24.1748C107.58 24.1748 103.992 27.7629 103.992 32.1747C103.992 36.5866 107.58 40.1746 111.992 40.1746C116.404 40.1746 119.992 36.5868 119.992 32.1747C119.992 27.7629 116.404 24.1748 111.992 24.1748ZM111.992 36.1748C109.786 36.1748 107.992 34.3809 107.992 32.1747C107.992 29.9688 109.786 28.1746 111.992 28.1746C114.198 28.1746 115.992 29.9686 115.992 32.1747C115.992 34.3809 114.198 36.1748 111.992 36.1748Z" fill="white"/>
<path d="M7.99992 90.1748C3.58805 90.1748 0 93.7629 0 98.1747C0 102.587 3.58805 106.175 7.99992 106.175C12.412 106.175 15.9998 102.587 15.9998 98.1747C15.9998 93.7629 12.412 90.1748 7.99992 90.1748ZM7.99992 102.175C5.79398 102.175 3.99984 100.381 3.99984 98.1747C3.99984 95.9686 5.79375 94.1747 7.99992 94.1747C10.2059 94.1747 12 95.9686 12 98.1747C12 100.381 10.2061 102.175 7.99992 102.175Z" fill="white"/>
<path d="M108.131 26.7047L90.8769 18.3748C89.8808 17.8927 88.6869 18.3127 88.2069 19.3069C87.7269 20.3009 88.1448 21.4969 89.139 21.9769L106.393 30.3068C106.673 30.4428 106.969 30.5068 107.261 30.5068C108.005 30.5068 108.719 30.0907 109.063 29.3747C109.543 28.3807 109.125 27.1847 108.131 26.7047Z" fill="white"/>
<path d="M90.0077 104.173C85.5956 104.173 82.0078 107.761 82.0078 112.173C82.0078 116.585 85.5956 120.173 90.0077 120.173C94.4198 120.173 98.0077 116.585 98.0077 112.173C98.0077 107.761 94.4198 104.173 90.0077 104.173ZM90.0077 116.173C87.8018 116.173 86.0077 114.379 86.0077 112.173C86.0077 109.967 87.8018 108.173 90.0077 108.173C92.2137 108.173 94.0078 109.967 94.0078 112.173C94.0078 114.379 92.2137 116.173 90.0077 116.173Z" fill="white"/>
<path d="M86.1231 106.703L68.8691 98.3732C67.873 97.8911 66.6791 98.3092 66.1991 99.3053C65.7191 100.299 66.137 101.495 67.1312 101.975L84.3852 110.305C84.6653 110.441 84.9613 110.505 85.2531 110.505C85.997 110.505 86.7111 110.089 87.0552 109.373C87.5349 108.379 87.1171 107.183 86.1231 106.703Z" fill="white"/>
<path d="M60.0077 54.1748C55.5956 54.1748 52.0078 57.7629 52.0078 62.1747C52.0078 66.5868 55.5959 70.1746 60.0077 70.1746C64.4198 70.1746 68.0077 66.5866 68.0077 62.1747C68.0077 57.7629 64.4198 54.1748 60.0077 54.1748ZM60.0077 66.1748C57.8018 66.1748 56.0077 64.3809 56.0077 62.1747C56.0077 59.9688 57.8016 58.1747 60.0077 58.1747C62.2137 58.1747 64.0078 59.9686 64.0078 62.1747C64.0078 64.3809 62.2137 66.1748 60.0077 66.1748Z" fill="white"/>
<path d="M56.4922 56.9247L43.2383 46.5946C42.3662 45.9205 41.1104 46.0705 40.4303 46.9427C39.7522 47.8148 39.9062 49.0705 40.7783 49.7507L54.0322 60.0808C54.3983 60.3648 54.8303 60.5029 55.2604 60.5029C55.8564 60.5029 56.4444 60.239 56.8403 59.733C57.5183 58.8606 57.3643 57.6046 56.4922 56.9247Z" fill="white"/>
<path d="M95.9923 52.1768C83.8622 52.1768 73.9922 62.0468 73.9922 74.1768C73.9922 86.3069 83.8622 96.1769 95.9923 96.1769C108.122 96.1769 117.992 86.3069 117.992 74.1768C117.992 62.0468 108.122 52.1768 95.9923 52.1768ZM95.9923 92.1766C86.0663 92.1766 77.9923 84.1026 77.9923 74.1766C77.9923 64.2506 86.0663 56.1766 95.9923 56.1766C105.918 56.1766 113.992 64.2506 113.992 74.1766C113.992 84.1026 105.918 92.1766 95.9923 92.1766Z" fill="white"/>
<path d="M96.0077 60.1748C91.5956 60.1748 88.0078 63.7629 88.0078 68.1747C88.0078 72.5868 91.5959 76.1746 96.0077 76.1746C100.42 76.1746 104.008 72.5866 104.008 68.1747C104.008 63.7629 100.42 60.1748 96.0077 60.1748ZM96.0077 72.1748C93.8018 72.1748 92.0077 70.3809 92.0077 68.1747C92.0077 65.9688 93.8016 64.1747 96.0077 64.1747C98.2137 64.1747 100.008 65.9686 100.008 68.1747C100.008 70.3809 98.2137 72.1748 96.0077 72.1748Z" fill="white"/>
<path d="M101.802 80.1729H90.198C86.7802 80.1729 84 82.8789 84 86.2029V91.4749C84 92.1888 84.3799 92.8488 84.998 93.2069C88.35 95.1468 92.1539 96.1729 96 96.1729C99.8461 96.1729 103.65 95.1468 107.002 93.2069C107.62 92.8509 108 92.1888 108 91.477V86.205C108 82.8789 105.22 80.1729 101.802 80.1729ZM104 90.2828C99.022 92.7628 92.978 92.7628 87.9998 90.2828V86.205C87.9998 85.0849 88.9859 84.1729 90.1978 84.1729H101.802C103.014 84.1729 104 85.0849 104 86.205V90.2828H104Z" fill="white"/>
<path d="M47.9925 76.1767C35.8624 76.1767 25.9924 86.0467 25.9924 98.1768C25.9924 110.307 35.8624 120.177 47.9925 120.177C60.1225 120.177 69.9925 110.307 69.9925 98.1765C69.9925 86.0465 60.1225 76.1767 47.9925 76.1767ZM47.9925 116.177C38.0664 116.177 29.9924 108.103 29.9924 98.1765C29.9924 88.2505 38.0664 80.1765 47.9925 80.1765C57.9185 80.1765 65.9925 88.2505 65.9925 98.1765C65.9925 108.103 57.9185 116.177 47.9925 116.177Z" fill="white"/>
<path d="M48.0077 84.1748C43.5956 84.1748 40.0078 87.7629 40.0078 92.1747C40.0078 96.5868 43.5959 100.175 48.0077 100.175C52.4196 100.175 56.0077 96.5866 56.0077 92.1747C56.0077 87.7629 52.4198 84.1748 48.0077 84.1748ZM48.0077 96.1748C45.8018 96.1748 44.0077 94.3809 44.0077 92.1747C44.0077 89.9688 45.8016 88.1747 48.0077 88.1747C50.2137 88.1747 52.0078 89.9686 52.0078 92.1747C52.0078 94.3809 50.2137 96.1748 48.0077 96.1748Z" fill="white"/>
<path d="M53.802 104.173H42.198C38.7802 104.173 36 106.879 36 110.203V115.475C36 116.189 36.3799 116.849 36.998 117.207C40.35 119.147 44.1539 120.173 48 120.173C51.8461 120.173 55.65 119.147 59.002 117.207C59.6201 116.851 60 116.189 60 115.477V110.205C60 106.879 57.2201 104.173 53.802 104.173ZM55.9999 114.283C51.0218 116.763 44.978 116.763 39.9998 114.283V110.205C39.9998 109.085 40.9859 108.173 42.1978 108.173H53.8017C55.0137 108.173 55.9997 109.085 55.9997 110.205L55.9999 114.283Z" fill="white"/>
<path d="M22.0001 26.1719C9.87 26.1719 0 36.0419 0 48.172C0 60.302 9.87 70.172 22.0001 70.172C34.1302 70.172 44.0002 60.302 44.0002 48.172C43.9999 36.0419 34.1299 26.1719 22.0001 26.1719ZM22.0001 66.172C12.0741 66.172 4.00008 58.098 4.00008 48.172C4.00008 38.2459 12.0741 30.172 22.0001 30.172C31.9261 30.172 40.0001 38.2459 40.0001 48.172C40.0001 58.098 31.9261 66.172 22.0001 66.172Z" fill="white"/>
<path d="M21.9921 34.1768C17.58 34.1768 13.9922 37.7648 13.9922 42.1767C13.9922 46.5886 17.5802 50.1766 21.9921 50.1766C26.4042 50.1766 29.992 46.5886 29.992 42.1767C29.992 37.7648 26.404 34.1768 21.9921 34.1768ZM21.9921 46.1768C19.7862 46.1768 17.992 44.3829 17.992 42.1767C17.992 39.9705 19.7859 38.1766 21.9921 38.1766C24.198 38.1766 25.9922 39.9705 25.9922 42.1767C25.9922 44.3829 24.198 46.1768 21.9921 46.1768Z" fill="white"/>
<path d="M27.8098 54.1748H16.2059C12.788 54.1748 10.0078 56.8809 10.0078 60.2048V65.4768C10.0078 66.1907 10.3877 66.8507 11.0058 67.2089C14.3578 69.1488 18.1617 70.1749 22.0078 70.1749C25.8539 70.1749 29.6578 69.1488 33.0098 67.2089C33.6279 66.8529 34.0078 66.1907 34.0078 65.4789V60.2069C34.0078 56.8809 31.2277 54.1748 27.8098 54.1748ZM30.0077 64.2848C25.0298 66.7647 18.9858 66.7647 14.0077 64.2848V60.2069C14.0077 59.0868 14.9937 58.1749 16.2056 58.1749H27.8095C29.0215 58.1749 30.0075 59.0868 30.0075 60.2069L30.0077 64.2848Z" fill="white"/>
<path d="M70.0003 0.174805C57.8702 0.174805 48.0002 10.0448 48.0002 22.1749C48.0002 34.305 57.8702 44.175 70.0003 44.175C82.1303 44.175 92.0003 34.305 92.0003 22.1749C92.0001 10.0448 82.1301 0.174805 70.0003 0.174805ZM70.0003 40.1749C60.0742 40.1749 52.0003 32.1009 52.0003 22.1749C52.0003 12.2489 60.0742 4.17488 70.0003 4.17488C79.9263 4.17488 88.0003 12.2489 88.0003 22.1749C88.0003 32.1009 79.9263 40.1749 70.0003 40.1749Z" fill="white"/>
<path d="M69.9921 8.17285C65.58 8.17285 61.9922 11.7609 61.9922 16.1728C61.9922 20.5846 65.5802 24.1727 69.9921 24.1727C74.404 24.1727 77.992 20.5849 77.992 16.173C77.992 11.7611 74.404 8.17285 69.9921 8.17285ZM69.9921 20.1729C67.7862 20.1729 65.992 18.3789 65.992 16.1728C65.992 13.9668 67.7859 12.1727 69.9921 12.1727C72.1983 12.1727 73.9922 13.9666 73.9922 16.1728C73.992 18.3789 72.198 20.1729 69.9921 20.1729Z" fill="white"/>
<path d="M75.8098 28.1768H64.2059C60.788 28.1768 58.0078 30.8829 58.0078 34.2068V39.4788C58.0078 40.1927 58.3877 40.8527 59.0058 41.2108C62.3578 43.1507 66.1617 44.1768 70.0078 44.1768C73.8539 44.1768 77.6578 43.1507 81.0098 41.2108C81.6279 40.8548 82.0078 40.1927 82.0078 39.4809V34.2089C82.0078 30.8826 79.2277 28.1768 75.8098 28.1768ZM78.0077 38.2868C73.0298 40.7667 66.9858 40.7667 62.0077 38.2868V34.2089C62.0077 33.0888 62.9937 32.1768 64.2056 32.1768H75.8095C77.0215 32.1768 78.0075 33.0888 78.0075 34.2089L78.0077 38.2868Z" fill="white"/>
<path d="M51.5288 20.8707C50.8109 20.0347 49.5488 19.9346 48.7088 20.6528L34.8488 32.5128C34.0088 33.2307 33.9108 34.4928 34.6287 35.3328C35.0248 35.7948 35.5847 36.0329 36.1486 36.0329C36.6087 36.0329 37.0706 35.8749 37.4487 35.5508L51.3087 23.6907C52.1489 22.9728 52.2469 21.7107 51.5288 20.8707Z" fill="white"/>
<path d="M95.5922 52.9745L83.5922 36.9745C82.9301 36.0885 81.6762 35.9144 80.7921 36.5744C79.908 37.2365 79.7301 38.4904 80.392 39.3724L92.392 55.3724C92.786 55.8965 93.386 56.1724 93.994 56.1724C94.41 56.1724 94.8321 56.0423 95.1921 55.7723C96.0762 55.1104 96.2543 53.8565 95.5922 52.9745Z" fill="white"/>
<path d="M79.1782 80.7911C78.5161 79.9071 77.2622 79.7292 76.3781 80.391L65.2062 88.769C64.3221 89.4311 64.1442 90.685 64.8061 91.567C65.2001 92.091 65.8001 92.3669 66.408 92.3669C66.8259 92.3669 67.2459 92.235 67.6062 91.9668L78.7781 83.5889C79.6622 82.9272 79.8403 81.6731 79.1782 80.7911Z" fill="white"/>
<path d="M27.9999 96.1747H13.9997C12.8958 96.1747 11.9998 97.0686 11.9998 98.1746C11.9998 99.2806 12.8958 100.175 13.9997 100.175H27.9997C29.1036 100.175 29.9996 99.2806 29.9996 98.1746C29.9996 97.0686 29.1038 96.1747 27.9999 96.1747Z" fill="white"/>
<path d="M21.9923 0.174805C17.5802 0.174805 13.9922 3.76285 13.9922 8.17473C13.9922 12.5868 17.5802 16.1746 21.9921 16.1746C26.4042 16.1746 29.992 12.5866 29.992 8.17473C29.9923 3.76285 26.4042 0.174805 21.9923 0.174805ZM21.9923 12.1748C19.7864 12.1748 17.9923 10.3809 17.9923 8.17473C17.9923 5.96879 19.7862 4.17465 21.9923 4.17465C24.1983 4.17465 25.9924 5.96855 25.9924 8.17473C25.9922 10.3809 24.1983 12.1748 21.9923 12.1748Z" fill="white"/>
<path d="M21.9921 12.1748C20.8882 12.1748 19.9922 13.0687 19.9922 14.1747V28.1747C19.9922 29.2807 20.8882 30.1746 21.9921 30.1746C23.096 30.1746 23.992 29.2807 23.992 28.1747V14.1747C23.992 13.0687 23.096 12.1748 21.9921 12.1748Z" fill="white"/>
</g>
<defs>
<clipPath id="clip0_9546_1651">
<rect width="120" height="120" fill="white" transform="translate(0 0.174805)"/>
</clipPath>
</defs>
</svg>
