<svg width="127" height="119" viewBox="0 0 127 119" fill="none" xmlns="http://www.w3.org/2000/svg">
<path fill-rule="evenodd" clip-rule="evenodd" d="M24.5647 100.82H12.2284C8.32014 100.82 5.14062 97.6406 5.14062 93.7323V10.3974C5.14062 6.48973 8.32014 3.31055 12.2284 3.31055H99.5227C103.43 3.31055 106.61 6.48973 106.61 10.3974V80.1652C106.61 81.1997 105.771 82.0384 104.736 82.0384C103.702 82.0384 102.863 81.1997 102.863 80.1652V10.3974C102.863 8.55543 101.365 7.05689 99.5227 7.05689H12.2284C10.3862 7.05689 8.88697 8.55543 8.88697 10.3974V93.7323C8.88697 95.5746 10.3858 97.0738 12.2284 97.0738H24.5647C25.5992 97.0738 26.4379 97.9125 26.4379 98.947C26.4379 99.9814 25.5992 100.82 24.5647 100.82Z" fill="white"/>
<path fill-rule="evenodd" clip-rule="evenodd" d="M104.737 25.082H7.0138C5.97932 25.082 5.14062 24.2433 5.14062 23.2089C5.14062 22.1744 5.97932 21.3357 7.0138 21.3357H104.737C105.771 21.3357 106.61 22.1744 106.61 23.2089C106.61 24.2433 105.771 25.082 104.737 25.082Z" fill="white"/>
<path fill-rule="evenodd" clip-rule="evenodd" d="M79.1455 16.2971H77.67C76.6356 16.2971 75.7969 15.4584 75.7969 14.424C75.7969 13.3895 76.6356 12.5508 77.67 12.5508H79.1455C80.18 12.5508 81.0187 13.3895 81.0187 14.424C81.0187 15.4584 80.18 16.2971 79.1455 16.2971Z" fill="white"/>
<path fill-rule="evenodd" clip-rule="evenodd" d="M86.2588 16.2971H84.7833C83.7489 16.2971 82.9102 15.4584 82.9102 14.424C82.9102 13.3895 83.7489 12.5508 84.7833 12.5508H86.2588C87.2932 12.5508 88.1319 13.3895 88.1319 14.424C88.1319 15.4584 87.2932 16.2971 86.2588 16.2971Z" fill="white"/>
<path fill-rule="evenodd" clip-rule="evenodd" d="M93.3642 16.2971H91.8888C90.8543 16.2971 90.0156 15.4584 90.0156 14.424C90.0156 13.3895 90.8543 12.5508 91.8888 12.5508H93.3642C94.3987 12.5508 95.2374 13.3895 95.2374 14.424C95.2374 15.4584 94.399 16.2971 93.3642 16.2971Z" fill="white"/>
<path fill-rule="evenodd" clip-rule="evenodd" d="M29.4938 16.2971H18.3849C17.3504 16.2971 16.5117 15.4584 16.5117 14.424C16.5117 13.3895 17.3504 12.5508 18.3849 12.5508H29.4938C30.5283 12.5508 31.367 13.3895 31.367 14.424C31.367 15.4584 30.5283 16.2971 29.4938 16.2971Z" fill="white"/>
<path fill-rule="evenodd" clip-rule="evenodd" d="M47.7634 16.2971H36.6544C35.62 16.2971 34.7812 15.4584 34.7812 14.424C34.7812 13.3895 35.62 12.5508 36.6544 12.5508H47.7634C48.7978 12.5508 49.6365 13.3895 49.6365 14.424C49.6365 15.4584 48.7978 16.2971 47.7634 16.2971Z" fill="white"/>
<path fill-rule="evenodd" clip-rule="evenodd" d="M43.2457 107.64C42.6372 107.64 42.033 107.45 41.5166 107.075C40.6024 106.411 40.1533 105.306 40.3442 104.193L41.0486 100.085L38.0639 97.1754C37.2548 96.3868 36.9693 95.2294 37.3182 94.1546C37.6675 93.0802 38.5787 92.3117 39.6971 92.1494L43.8216 91.5501L45.6662 87.8125C46.1663 86.7992 47.1787 86.1699 48.3084 86.1699C49.4382 86.1699 50.4506 86.7992 50.9507 87.8125L52.7953 91.5501L56.9198 92.1494C58.0379 92.312 58.9491 93.0802 59.2984 94.1546C59.6476 95.2291 59.3618 96.3865 58.553 97.1754L55.5683 100.085L56.273 104.193C56.4639 105.306 56.0148 106.411 55.1006 107.075C54.1865 107.739 52.9976 107.825 51.9976 107.299L48.3084 105.36L44.6193 107.299C44.1845 107.528 43.714 107.64 43.2457 107.64ZM48.3088 101.509C48.7797 101.509 49.2506 101.622 49.6798 101.848L52.3068 103.229L51.805 100.304C51.6411 99.3475 51.9579 98.3725 52.6525 97.6954L54.778 95.6236L51.8408 95.1969C50.8808 95.0574 50.0512 94.4548 49.6223 93.5849L48.3088 90.9234L46.9953 93.5849C46.566 94.4548 45.7364 95.0574 44.7764 95.1969L41.8395 95.6236L43.965 97.6951C44.6597 98.3725 44.9764 99.3472 44.8125 100.303L44.3107 103.228L46.9377 101.847C47.367 101.622 47.8379 101.509 48.3088 101.509Z" fill="white"/>
<path fill-rule="evenodd" clip-rule="evenodd" d="M68.7336 107.64C68.1252 107.64 67.521 107.45 67.0045 107.075C66.0904 106.411 65.6413 105.306 65.8325 104.193L66.5369 100.085L63.5522 97.1754C62.7431 96.3868 62.4575 95.2294 62.8065 94.1546C63.1558 93.0802 64.067 92.3117 65.1853 92.1494L69.3099 91.5501L71.1544 87.8125C71.6543 86.7992 72.667 86.1699 73.7967 86.1699C74.9265 86.1699 75.9388 86.7992 76.439 87.8125L78.2836 91.5501L82.4084 92.1494C83.5265 92.312 84.438 93.0802 84.787 94.155C85.1362 95.2294 84.8504 96.3868 84.0413 97.1758L81.0566 100.085L81.761 104.193C81.9522 105.307 81.5027 106.411 80.5889 107.075C79.6751 107.739 78.4858 107.825 77.4858 107.299L73.7964 105.36L70.1073 107.299C69.6728 107.528 69.2019 107.64 68.7336 107.64ZM73.7967 101.509C74.2676 101.509 74.7385 101.622 75.1678 101.848L77.7948 103.229L77.293 100.304C77.1288 99.3481 77.4455 98.3732 78.1401 97.6958L80.2654 95.6239L77.3281 95.1972C76.3684 95.0577 75.5388 94.4554 75.1096 93.5855L73.7961 90.9237L72.4826 93.5852C72.0533 94.4551 71.224 95.0577 70.2637 95.1972L67.3268 95.6239L69.452 97.6954C70.1466 98.3728 70.4634 99.3478 70.2995 100.304L69.7977 103.229L72.4247 101.848C72.8549 101.622 73.3258 101.509 73.7967 101.509Z" fill="white"/>
<path fill-rule="evenodd" clip-rule="evenodd" d="M94.2219 107.64C93.6135 107.64 93.0092 107.45 92.4928 107.075C91.5787 106.411 91.1296 105.306 91.3204 104.193L92.0252 100.085L89.0405 97.1754C88.2313 96.3868 87.9458 95.2294 88.2948 94.1546C88.6437 93.0802 89.5553 92.3117 90.6736 92.1494L94.7982 91.5501L96.6427 87.8125C97.1429 86.7995 98.1553 86.1699 99.285 86.1699C100.415 86.1699 101.427 86.7992 101.927 87.8125L103.772 91.5501L107.896 92.1494C109.014 92.312 109.926 93.0802 110.275 94.155C110.624 95.2294 110.338 96.3868 109.529 97.1754L106.545 100.085L107.249 104.193C107.44 105.307 106.991 106.411 106.077 107.075C105.163 107.739 103.974 107.824 102.974 107.299L99.2844 105.359L95.5953 107.299C95.1611 107.528 94.6902 107.64 94.2219 107.64ZM99.2853 101.509C99.7562 101.509 100.227 101.622 100.656 101.848L103.283 103.229L102.782 100.304C102.618 99.3472 102.934 98.3722 103.629 97.6954L105.754 95.6239L102.817 95.1972C101.857 95.0577 101.028 94.4551 100.598 93.5852L99.285 90.9237L97.9715 93.5855C97.5422 94.4554 96.713 95.0581 95.7527 95.1972L92.8157 95.6239L94.9409 97.6954C95.6356 98.3728 95.9523 99.3475 95.7884 100.303L95.2866 103.229L97.9136 101.848C98.3432 101.622 98.8141 101.509 99.2853 101.509Z" fill="white"/>
<path fill-rule="evenodd" clip-rule="evenodd" d="M106.414 115.516H41.182C36.2106 115.516 31.5368 113.58 28.0217 110.065C24.5066 106.55 22.5703 101.876 22.5703 96.9047C22.5703 91.9336 24.5062 87.2595 28.0217 83.7444C31.5371 80.2289 36.211 78.293 41.182 78.293H106.414C111.385 78.293 116.059 80.2289 119.574 83.7444C123.089 87.2595 125.026 91.9333 125.026 96.9047C125.026 101.876 123.09 106.55 119.574 110.065C116.059 113.58 111.385 115.516 106.414 115.516ZM41.182 82.0393C32.9853 82.0393 26.3167 88.7079 26.3167 96.9047C26.3167 105.101 32.9853 111.77 41.182 111.77H106.414C114.611 111.77 121.279 105.101 121.279 96.9047C121.279 88.7079 114.611 82.0393 106.414 82.0393H41.182Z" fill="white"/>
<path fill-rule="evenodd" clip-rule="evenodd" d="M88.1504 61.2583H23.5992C19.6912 61.2583 16.5117 58.0788 16.5117 54.1708V39.5328C16.5117 35.6248 19.6912 32.4453 23.5992 32.4453H88.1504C92.0584 32.4453 95.2379 35.6248 95.2379 39.5328V54.1708C95.2376 58.0788 92.0584 61.2583 88.1504 61.2583ZM23.5992 36.1917C21.7569 36.1917 20.2581 37.6905 20.2581 39.5328V54.1708C20.2581 56.0131 21.7569 57.512 23.5992 57.512H88.1504C89.9927 57.512 91.4916 56.0131 91.4916 54.1708V39.5328C91.4916 37.6905 89.9927 36.1917 88.1504 36.1917H23.5992Z" fill="white"/>
<path fill-rule="evenodd" clip-rule="evenodd" d="M67.7838 71.6487H43.9669C42.9324 71.6487 42.0938 70.81 42.0938 69.7755C42.0938 68.741 42.9324 67.9023 43.9669 67.9023H67.7838C68.8183 67.9023 69.657 68.741 69.657 69.7755C69.657 70.81 68.8183 71.6487 67.7838 71.6487Z" fill="white"/>
</svg>
