<svg width="108" height="112" viewBox="0 0 108 112" fill="none" xmlns="http://www.w3.org/2000/svg">
<g clip-path="url(#clip0_9654_99)">
<path d="M94.5605 68.9384C95.9121 64.6122 96.5985 60.1002 96.5985 55.5026C96.5985 50.9219 95.917 46.426 94.5736 42.1134C97.5279 40.9629 100.214 39.121 102.444 36.6716C106.298 32.4404 108.332 26.9052 108.172 21.0875C107.84 9.07623 98.148 -0.413513 86.5641 -0.0707453C80.9533 0.0955479 75.7418 2.51783 71.8876 6.74982C69.9413 8.88703 68.4604 11.3568 67.491 14.0277C63.3316 12.6354 58.9963 11.9287 54.5775 11.9287C50.1563 11.9287 45.8178 12.6371 41.6559 14.0311C38.6542 5.79363 30.9719 -0.0800781 21.9905 -0.0800781C10.4033 -0.0800781 0.976723 9.69558 0.976723 21.7111C0.976723 31.0244 6.64148 38.9903 14.5847 42.1024C13.2397 46.4192 12.5574 50.9185 12.5574 55.5026C12.5574 60.1002 13.2438 64.6122 14.5954 68.9384C6.64639 72.0479 0.976723 80.0172 0.976723 89.3347C0.976723 92.6148 1.66232 95.7684 3.01469 98.7074C3.38858 99.5193 4.32616 99.8638 5.10911 99.4761C5.89125 99.0883 6.22341 98.116 5.85034 97.3041C4.70087 94.8063 4.11835 92.1252 4.11835 89.3347C4.11835 79.1162 12.1361 70.8024 21.9905 70.8024C31.8457 70.8024 39.8634 79.1162 39.8634 89.3347C39.8634 99.5541 31.8457 107.868 21.9905 107.868C17.4957 107.868 13.1996 106.131 9.89437 102.978C9.25541 102.368 8.26138 102.412 7.67478 103.073C7.08736 103.736 7.12827 104.766 7.76723 105.375C11.6542 109.084 16.7053 111.126 21.9905 111.126C30.985 111.126 38.6771 105.234 41.669 96.9783C45.826 98.3697 50.1604 99.0765 54.5775 99.0765C58.9955 99.0765 63.3307 98.3697 67.4877 96.9791C70.4796 105.235 78.1717 111.126 87.1662 111.126C98.7535 111.126 108.18 101.35 108.18 89.3347C108.18 80.0172 102.51 72.047 94.5605 68.9384ZM74.1718 8.98629C77.4493 5.38723 81.8827 3.32723 86.6549 3.18555C86.8284 3.18046 87.0002 3.17791 87.1736 3.17791C96.7932 3.17791 104.754 11.1456 105.031 21.18C105.168 26.1281 103.438 30.8352 100.161 34.4351C96.8832 38.0341 92.4497 40.0941 87.6776 40.2358C87.5041 40.2409 87.3315 40.2435 87.1589 40.2435C77.5393 40.2435 69.578 32.2758 69.3015 22.2414C69.164 17.2933 70.8944 12.5854 74.1718 8.98629ZM66.6066 93.8501C62.736 95.155 58.6968 95.8185 54.5775 95.8185C50.4599 95.8185 46.4207 95.155 42.5502 93.8501C42.8471 92.3925 43.005 90.8823 43.005 89.3347C43.005 77.3192 33.5777 67.5444 21.9905 67.5444C20.4892 67.5444 19.0247 67.7098 17.6118 68.0212C16.3429 63.9928 15.699 59.7889 15.699 55.5026C15.699 51.2298 16.3396 47.0394 17.6004 43.0212C19.0166 43.3352 20.4851 43.5015 21.9905 43.5015C25.5903 43.5015 29.1418 42.541 32.263 40.7245C33.0189 40.2842 33.2881 39.2915 32.8635 38.5067C32.4389 37.7219 31.4816 37.4436 30.7249 37.884C28.0725 39.4273 25.0519 40.2435 21.9905 40.2435C12.1352 40.2435 4.11835 31.9297 4.11835 21.7103C4.11835 11.4917 12.1361 3.17791 21.9905 3.17791C31.8457 3.17791 39.8634 11.4917 39.8634 21.7111C39.8634 25.9864 38.426 30.1573 35.8161 33.4568C35.2655 34.1517 35.3637 35.1783 36.0345 35.7493C36.7046 36.3195 37.6945 36.2185 38.2451 35.5228C41.314 31.6429 43.005 26.7372 43.005 21.7103C43.005 20.15 42.8439 18.6271 42.542 17.1584C46.4158 15.851 50.4574 15.1867 54.5775 15.1867C58.6968 15.1867 62.7368 15.8501 66.609 17.1559C66.2662 18.8375 66.1124 20.5725 66.1607 22.3347C66.4871 34.1339 75.8465 43.5023 87.1581 43.5015C87.3601 43.5015 87.5639 43.4989 87.7676 43.4921C89.0553 43.4539 90.3218 43.2953 91.5563 43.0246C92.8163 47.0411 93.4569 51.2315 93.4569 55.5026C93.4569 59.7889 92.8122 63.9928 91.5441 68.0212C90.1312 67.709 88.6667 67.5444 87.1662 67.5444C75.579 67.5444 66.1525 77.3192 66.1525 89.3347C66.1525 90.8831 66.3096 92.3933 66.6066 93.8501ZM87.1662 107.868C77.311 107.868 69.2941 99.5541 69.2941 89.3356C69.2941 79.1162 77.311 70.8024 87.1662 70.8024C97.0215 70.8024 105.038 79.1162 105.038 89.3356C105.038 99.5541 97.0215 107.868 87.1662 107.868Z" fill="#06D1CE"/>
<path d="M32.6851 12.0958C32.1435 11.714 31.4309 11.72 30.8958 12.1119C30.3607 12.5031 29.7881 12.8297 29.1859 13.0885C27.0277 11.3373 23.9 11.3577 21.7573 13.2896C20.6438 14.2941 19.9475 15.683 19.7856 17.183C17.4809 16.8275 15.3979 15.5116 14.0316 13.494C13.706 13.0138 13.1562 12.7534 12.5942 12.8094C12.0305 12.8662 11.5404 13.2327 11.3105 13.7689C11.2655 13.8741 10.2085 16.3787 10.3435 19.4441C10.4466 21.79 11.2557 24.8139 14.2067 27.1488C13.144 27.5042 12.0215 27.6688 10.9031 27.6222C10.1749 27.5925 9.52453 28.0837 9.32818 28.81C9.13183 29.5362 9.4419 30.3075 10.0776 30.674C12.5418 32.0934 15.1819 32.8044 17.7615 32.8044C20.2396 32.8044 22.6613 32.1477 24.8163 30.8335C27.5186 29.185 29.4821 26.6609 30.5481 23.5785C30.5816 23.5005 30.6095 23.419 30.6315 23.335C31.1797 21.6611 31.4669 19.8276 31.4669 17.883C31.4669 17.7982 31.4644 17.7125 31.4611 17.6276C32.3578 16.5314 32.9976 15.2325 33.3281 13.8283C33.4819 13.1682 33.2267 12.4776 32.6851 12.0958ZM28.277 17.3748C28.3081 17.5445 28.3244 17.7201 28.3244 17.8881C28.3244 19.4848 28.0953 20.9637 27.6593 22.2999C27.6355 22.361 27.6159 22.4247 27.5995 22.49C26.7839 24.8571 25.299 26.7585 23.2234 28.0252C21.3236 29.185 19.1433 29.6788 16.9213 29.5116C17.4302 29.2503 17.9219 28.9534 18.3923 28.6225C18.8635 28.2899 19.1253 27.7189 19.0746 27.1292C19.0239 26.5396 18.6688 26.0254 18.1477 25.7853C15.2146 24.4338 13.6463 22.2838 13.4868 19.3966C13.454 18.8052 13.4827 18.2376 13.544 17.7176C15.7047 19.59 18.4725 20.6116 21.3613 20.5344C22.213 20.5114 22.892 19.7894 22.892 18.9062V17.9178C22.892 17.911 22.892 17.9034 22.892 17.8957C22.8814 17.0719 23.2184 16.2888 23.819 15.7483C24.9414 14.7362 26.6481 14.8592 27.6241 16.0232C27.8204 16.2565 28.0708 16.422 28.344 16.5094C28.2483 16.7826 28.223 17.0804 28.277 17.3748Z" fill="#06D1CE"/>
<path d="M81.9968 22.9958H84.2237V32.7095C84.2237 33.6088 84.9273 34.3385 85.7945 34.3385C86.6626 34.3385 87.3653 33.6088 87.3653 32.7095V22.9958H89.7911C90.6583 22.9958 91.3619 22.2661 91.3619 21.3668C91.3619 20.4674 90.6583 19.7378 89.7911 19.7378H87.3653V15.18C87.3653 13.6155 88.5934 12.342 90.1028 12.342H92.1367C93.0039 12.342 93.7075 11.6123 93.7075 10.713C93.7075 9.81279 93.0039 9.08398 92.1367 9.08398H90.1028C86.8614 9.08398 84.2237 11.8185 84.2237 15.18V19.7378H81.9968C81.1295 19.7378 80.4259 20.4674 80.4259 21.3668C80.4259 22.2661 81.1295 22.9958 81.9968 22.9958Z" fill="#06D1CE"/>
<path d="M18.4234 97.7612C18.7973 97.7612 19.1712 97.661 19.5041 97.4617L30.1963 91.0568C30.8631 90.6581 31.2771 89.914 31.2771 89.1156C31.2771 88.3181 30.8631 87.574 30.1963 87.1752L19.5041 80.7704C18.8382 80.3708 18.0102 80.3708 17.3435 80.7704C16.6767 81.1692 16.2619 81.9133 16.2619 82.7116V95.5204C16.2619 96.3188 16.6767 97.0629 17.3435 97.4617C17.6764 97.6619 18.0495 97.7612 18.4234 97.7612ZM19.4035 84.473L27.1561 89.1165L19.4035 93.7599V84.473Z" fill="#06D1CE"/>
<path d="M93.9907 77.7988H80.3393C77.9684 77.7988 76.0392 79.7994 76.0392 82.259V96.4135C76.0392 98.8731 77.9684 100.874 80.3393 100.874H93.9907C96.3617 100.874 98.2908 98.8731 98.2908 96.4135V82.259C98.2908 79.7994 96.3617 77.7988 93.9907 77.7988ZM95.1492 96.4135C95.1492 97.077 94.6297 97.6157 93.9907 97.6157H80.3393C79.7004 97.6157 79.1809 97.077 79.1809 96.4135V82.259C79.1809 81.5964 79.7004 81.0568 80.3393 81.0568H93.9907C94.6297 81.0568 95.1492 81.5964 95.1492 82.259V96.4135Z" fill="#06D1CE"/>
<path d="M87.1666 84.4121C84.5485 84.4121 82.4181 86.6214 82.4181 89.3364C82.4181 92.0514 84.5485 94.2599 87.1666 94.2599C89.7846 94.2599 91.915 92.0514 91.915 89.3364C91.915 86.6214 89.7846 84.4121 87.1666 84.4121ZM87.1666 91.0019C86.2805 91.0019 85.5598 90.2544 85.5598 89.3364C85.5598 88.4176 86.2805 87.6701 87.1666 87.6701C88.0526 87.6701 88.7734 88.4176 88.7734 89.3364C88.7734 90.2544 88.0526 91.0019 87.1666 91.0019Z" fill="#06D1CE"/>
<path d="M65.943 38.6035C65.075 38.6035 64.3722 39.3332 64.3722 40.2325V40.963C62.1583 42.3163 59.8307 43.4846 57.4377 44.4407C55.5216 45.206 53.5426 45.8424 51.5406 46.3404C51.233 46.0952 50.8501 45.9467 50.4328 45.9467H43.2406C41.5029 45.9467 40.09 47.4128 40.09 49.214V57.7688C40.09 59.5709 41.5029 61.0361 43.2406 61.0361H44.6781L45.223 71.8978C45.2663 72.7674 45.9601 73.4419 46.7905 73.4419C46.8175 73.4419 46.8453 73.4411 46.8731 73.4394C47.7395 73.3927 48.4055 72.6266 48.3605 71.7281L47.8238 61.0361H50.4328C50.8493 61.0361 51.233 60.8885 51.5398 60.6433C52.8144 60.9623 54.0825 61.3373 55.322 61.7641C56.1459 62.0466 57.0344 61.5842 57.3076 60.7307C57.5809 59.8763 57.1342 58.9541 56.3111 58.6715C54.98 58.2134 53.6187 57.8104 52.2491 57.4685V49.5161C54.3942 48.9833 56.514 48.3003 58.5667 47.4807C60.5515 46.6874 62.4954 45.7584 64.3714 44.7063V62.2808C63.6809 61.8939 62.983 61.5248 62.2802 61.1744C61.4981 60.7841 60.5597 61.1252 60.1842 61.9363C59.8078 62.7474 60.1367 63.7206 60.9189 64.1108C62.0888 64.6946 63.2456 65.3377 64.3714 66.0232V66.7503C64.3714 67.6505 65.075 68.3793 65.9422 68.3793C66.8094 68.3793 67.513 67.6505 67.513 66.7503V40.2325C67.5138 39.3332 66.8102 38.6035 65.943 38.6035ZM49.1083 57.7773L43.2316 57.7688L43.2406 49.2047H49.1083V57.7773Z" fill="#06D1CE"/>
</g>
<defs>
<clipPath id="clip0_9654_99">
<rect width="107.234" height="111.206" fill="white" transform="translate(0.765785 0.138672)"/>
</clipPath>
</defs>
</svg>
