<svg width="15" height="16" viewBox="0 0 15 16" fill="none" xmlns="http://www.w3.org/2000/svg">
<path fill-rule="evenodd" clip-rule="evenodd" d="M7.87947 6.93963C8.66948 6.93963 9.42713 6.6258 9.98575 6.06718C10.5444 5.50857 10.8582 4.75091 10.8582 3.96091C10.8582 3.1709 10.5444 2.41325 9.98575 1.85463C9.42713 1.29601 8.66948 0.982178 7.87947 0.982178C7.08947 0.982178 6.33181 1.29601 5.77319 1.85463C5.21457 2.41325 4.90075 3.1709 4.90075 3.96091C4.90075 4.75091 5.21457 5.50857 5.77319 6.06718C6.33181 6.6258 7.08947 6.93963 7.87947 6.93963ZM0.929108 15.8758C0.929108 14.9631 1.10888 14.0593 1.45817 13.216C1.80746 12.3728 2.31942 11.6066 2.96482 10.9612C3.61022 10.3158 4.37643 9.80381 5.21968 9.45452C6.06294 9.10523 6.96674 8.92545 7.87947 8.92545C8.79221 8.92545 9.69601 9.10523 10.5393 9.45452C11.3825 9.80381 12.1487 10.3158 12.7941 10.9612C13.4395 11.6066 13.9515 12.3728 14.3008 13.216C14.6501 14.0593 14.8298 14.9631 14.8298 15.8758H0.929108Z" fill="white"/>
</svg>
