<svg width="27" height="11" viewBox="0 0 27 11" fill="none" xmlns="http://www.w3.org/2000/svg">
<path d="M20.0406 1.17222C20.2 0.949168 20.5101 0.897616 20.7332 1.05707L26.2793 5.02197C26.3048 5.0393 26.3289 5.0592 26.3512 5.08157C26.393 5.12331 26.4261 5.17132 26.4501 5.22298C26.459 5.24196 26.4666 5.26132 26.4729 5.28093M20.0406 1.17222L26.4965 5.43257C26.4965 5.48546 26.4882 5.53642 26.4729 5.58422C26.4666 5.60383 26.459 5.62319 26.4501 5.64217M20.0406 1.17222C19.8811 1.39527 19.9327 1.70535 20.1557 1.8648M20.0406 1.17222L20.1557 1.8648M26.4729 5.28093C26.4853 5.31962 26.493 5.36038 26.4956 5.40256C26.4962 5.41254 26.4965 5.42255 26.4965 5.43257M26.4729 5.28093C26.4888 5.33046 26.4965 5.38165 26.4965 5.43257M26.4729 5.28093C26.4539 5.22164 26.424 5.1672 26.3857 5.11995L26.4965 5.43257M26.4965 5.43257C26.4964 5.50475 26.4807 5.57641 26.4501 5.64217M26.4501 5.64217C26.4374 5.66944 26.422 5.69593 26.4039 5.7213C26.398 5.7295 26.3919 5.73746 26.3857 5.7452C26.4071 5.71875 26.4259 5.69005 26.4417 5.65951C26.4446 5.65378 26.4474 5.648 26.4501 5.64217ZM26.2833 5.84028L26.2887 5.83644C26.3113 5.82029 26.3321 5.8026 26.3512 5.7836L26.03 5.92814C26.1182 5.92274 26.2089 5.89083 26.2833 5.84028ZM26.2833 5.84028L26.2793 5.84318C26.2792 5.84325 26.2835 5.84021 26.2833 5.84028ZM20.1557 1.8648L24.4519 4.93612H1C0.725816 4.93612 0.503545 5.15839 0.503545 5.43257C0.503545 5.70676 0.725816 5.92903 1 5.92903H24.4519L20.1557 9.00035C19.9327 9.1598 19.8811 9.46988 20.0406 9.69293M20.1557 1.8648L20.0406 9.69293M20.0406 9.69293C20.2 9.91598 20.5101 9.96753 20.7332 9.80808L20.0406 9.69293Z" stroke="#FE0078" stroke-width="0.992909" stroke-linecap="round" stroke-linejoin="round"/>
</svg>
