<svg width="21" height="22" viewBox="0 0 21 22" fill="none" xmlns="http://www.w3.org/2000/svg">
<path fill-rule="evenodd" clip-rule="evenodd" d="M3.71961 2.4771C3.60052 2.016 3.67545 1.57243 3.92794 1.24392C4.18043 0.915419 4.58979 0.72888 5.066 0.725328L15.2256 0.651043C15.7019 0.64763 16.2059 0.827491 16.627 1.15107C17.048 1.47465 17.3515 1.91546 17.4707 2.37655L20.0129 12.2133C20.1225 12.6692 20.042 13.1052 19.7887 13.4272C19.5354 13.7493 19.1296 13.9317 18.6587 13.9351C18.1878 13.9385 17.6894 13.7628 17.271 13.4456C16.8525 13.1285 16.5474 12.6954 16.4214 12.2395L14.9641 6.60064L3.93211 20.9543C3.67958 21.2828 3.27011 21.4694 2.79378 21.4729C2.31745 21.4763 1.81329 21.2965 1.3922 20.9728C0.97111 20.6492 0.667584 20.2083 0.548398 19.7471C0.42921 19.2859 0.504125 18.8422 0.75666 18.5137L11.7887 4.16003L5.96465 4.20261C5.4884 4.20602 4.98435 4.02616 4.56335 3.70258C4.14234 3.379 3.83885 2.93819 3.71961 2.4771Z" fill="white"/>
</svg>
